<svg width="27" height="27" viewBox="0 0 27 27" fill="none" xmlns="http://www.w3.org/2000/svg">
<path d="M13.5001 0.273438C9.90792 0.273438 9.4575 0.288663 8.04674 0.353032C6.63892 0.417296 5.67743 0.640855 4.83607 0.967844C3.9663 1.30586 3.22868 1.75812 2.49338 2.49343C1.75807 3.22873 1.30581 3.96635 0.967792 4.83612C0.640802 5.67743 0.417244 6.63892 0.35298 8.04674C0.288611 9.4575 0.273438 9.90792 0.273438 13.5001C0.273438 17.0922 0.288611 17.5426 0.35298 18.9534C0.417244 20.3612 0.640802 21.3227 0.967792 22.164C1.30581 23.0338 1.75807 23.7714 2.49338 24.5067C3.22868 25.242 3.9663 25.6943 4.83607 26.0323C5.67743 26.3593 6.63892 26.5829 8.04674 26.6471C9.4575 26.7115 9.90792 26.7267 13.5001 26.7267C17.0922 26.7267 17.5426 26.7115 18.9534 26.6471C20.3612 26.5829 21.3227 26.3593 22.164 26.0323C23.0338 25.6943 23.7714 25.242 24.5067 24.5067C25.242 23.7714 25.6943 23.0338 26.0323 22.164C26.3593 21.3227 26.5829 20.3612 26.6471 18.9534C26.7115 17.5426 26.7267 17.0922 26.7267 13.5001C26.7267 9.90792 26.7115 9.4575 26.6471 8.04674C26.5829 6.63892 26.3593 5.67743 26.0323 4.83612C25.6943 3.96635 25.242 3.22873 24.5067 2.49343C23.7714 1.75812 23.0338 1.30586 22.164 0.967844C21.3227 0.640855 20.3612 0.417296 18.9534 0.353032C17.5426 0.288663 17.0922 0.273438 13.5001 0.273438ZM13.5001 2.65666C17.0317 2.65666 17.4501 2.6701 18.8447 2.73374C20.1343 2.79259 20.8347 3.00806 21.3007 3.18915C21.9181 3.42909 22.3587 3.71575 22.8215 4.17857C23.2844 4.64138 23.571 5.08204 23.811 5.69938C23.9921 6.16545 24.2076 6.86579 24.2664 8.15537C24.33 9.55006 24.3435 9.96841 24.3435 13.5001C24.3435 17.0317 24.33 17.4501 24.2664 18.8447C24.2076 20.1343 23.9921 20.8347 23.811 21.3007C23.571 21.9181 23.2844 22.3587 22.8215 22.8215C22.3587 23.2844 21.9181 23.571 21.3007 23.811C20.8347 23.9921 20.1343 24.2076 18.8447 24.2664C17.4503 24.33 17.032 24.3435 13.5001 24.3435C9.96814 24.3435 9.5499 24.33 8.15537 24.2664C6.86579 24.2076 6.16545 23.9921 5.69938 23.811C5.08199 23.571 4.64138 23.2844 4.17852 22.8215C3.7157 22.3587 3.42903 21.9181 3.18915 21.3007C3.00801 20.8347 2.79254 20.1343 2.73368 18.8447C2.67005 17.4501 2.65661 17.0317 2.65661 13.5001C2.65661 9.96841 2.67005 9.55006 2.73368 8.15537C2.79254 6.86579 3.00801 6.16545 3.18915 5.69938C3.42903 5.08204 3.7157 4.64138 4.17852 4.17857C4.64138 3.71575 5.08199 3.42909 5.69938 3.18915C6.16545 3.00806 6.86579 2.79259 8.15537 2.73374C9.55006 2.6701 9.96841 2.65666 13.5001 2.65666Z" fill="white"/>
<path d="M13.5001 17.9089C11.0651 17.9089 9.09118 15.935 9.09118 13.5001C9.09118 11.0651 11.0651 9.09118 13.5001 9.09118C15.935 9.09118 17.9089 11.0651 17.9089 13.5001C17.9089 15.935 15.935 17.9089 13.5001 17.9089ZM13.5001 6.70801C9.74889 6.70801 6.70801 9.74889 6.70801 13.5001C6.70801 17.2512 9.74889 20.2921 13.5001 20.2921C17.2512 20.2921 20.2921 17.2512 20.2921 13.5001C20.2921 9.74889 17.2512 6.70801 13.5001 6.70801Z" fill="white"/>
<path d="M22.1475 6.43971C22.1475 7.3163 21.4369 8.02688 20.5603 8.02688C19.6838 8.02688 18.9731 7.3163 18.9731 6.43971C18.9731 5.56312 19.6838 4.85254 20.5603 4.85254C21.4369 4.85254 22.1475 5.56312 22.1475 6.43971Z" fill="white"/>
</svg>
