<svg width="31" height="30" viewBox="0 0 31 30" fill="none" xmlns="http://www.w3.org/2000/svg">
<path d="M28.6571 -0.0791016C29.9213 -0.0791016 30.9509 0.889629 30.9509 2.08453V27.7633C30.9509 28.9582 29.9213 29.9286 28.6571 29.9286H2.23088C0.969148 29.9286 -0.0561523 28.9582 -0.0561523 27.7633V2.08453C-0.0561523 0.889629 0.969148 -0.0791016 2.23088 -0.0791016H28.6571ZM26.3667 25.4906V17.637C26.3667 13.7803 25.5062 10.8151 20.8497 10.8151C18.6121 10.8151 17.1116 12.0024 16.4983 13.1282H16.4354V11.1705H12.0269V25.4906H16.6203V18.4079C16.6203 16.5397 16.9855 14.7298 19.3785 14.7298C21.7387 14.7298 21.7682 16.8662 21.7682 18.5268V25.4906H26.3667ZM9.14177 11.1705H4.53815V25.4906H9.14177V11.1705ZM6.84117 4.05199C5.36412 4.05199 4.17311 5.20834 4.17311 6.63287C4.17311 8.05775 5.36412 9.21404 6.84117 9.21404C8.31239 9.21404 9.5068 8.05775 9.5068 6.63287C9.5068 5.20834 8.31239 4.05199 6.84117 4.05199Z" fill="white"/>
</svg>
