<svg width="259" height="53" viewBox="0 0 259 53" fill="none" xmlns="http://www.w3.org/2000/svg">
<path d="M101.809 47.7061C100.302 48.1422 98.3598 48.5387 95.981 48.8955C93.6022 49.292 91.1044 49.4902 88.4877 49.4902C85.8314 49.4902 83.6112 49.1334 81.8271 48.4197C80.0826 47.7061 78.695 46.7149 77.6641 45.4462C76.6333 44.1379 75.8999 42.5916 75.4637 40.8075C75.0276 39.0234 74.8096 37.0609 74.8096 34.92V17.4952H83.6706V33.8495C83.6706 36.7041 84.0473 38.7657 84.8006 40.0344C85.5539 41.3031 86.9613 41.9375 89.023 41.9375C89.6573 41.9375 90.3313 41.9176 91.045 41.878C91.7586 41.7987 92.3929 41.7194 92.948 41.6401V17.4952H101.809V47.7061Z" fill="#FF36A3"/>
<path d="M101.809 47.7061C100.302 48.1422 98.3598 48.5387 95.981 48.8955C93.6022 49.292 91.1044 49.4902 88.4877 49.4902C85.8314 49.4902 83.6112 49.1334 81.8271 48.4197C80.0826 47.7061 78.695 46.7149 77.6641 45.4462C76.6333 44.1379 75.8999 42.5916 75.4637 40.8075C75.0276 39.0234 74.8096 37.0609 74.8096 34.92V17.4952H83.6706V33.8495C83.6706 36.7041 84.0473 38.7657 84.8006 40.0344C85.5539 41.3031 86.9613 41.9375 89.023 41.9375C89.6573 41.9375 90.3313 41.9176 91.045 41.878C91.7586 41.7987 92.3929 41.7194 92.948 41.6401V17.4952H101.809V47.7061Z" fill="#FF4F84"/>
<path d="M108.64 33.3737C108.64 30.5985 109.057 28.18 109.889 26.1184C110.761 24.0171 111.891 22.2726 113.279 20.885C114.667 19.4973 116.252 18.4467 118.037 17.7331C119.86 17.0194 121.724 16.6626 123.627 16.6626C128.067 16.6626 131.576 18.0304 134.153 20.766C136.73 23.462 138.019 27.4465 138.019 32.7196C138.019 33.235 137.999 33.8099 137.959 34.4442C137.919 35.0389 137.88 35.5741 137.84 36.0499H117.739C117.937 37.8737 118.79 39.3208 120.296 40.3912C121.803 41.4617 123.825 41.9969 126.362 41.9969C127.988 41.9969 129.574 41.8582 131.12 41.5806C132.706 41.2635 133.994 40.8868 134.986 40.4507L136.175 47.6466C135.699 47.8845 135.065 48.1224 134.272 48.3603C133.479 48.5981 132.587 48.7964 131.596 48.955C130.644 49.1532 129.613 49.3118 128.503 49.4307C127.393 49.5497 126.283 49.6091 125.173 49.6091C122.358 49.6091 119.9 49.1928 117.799 48.3603C115.737 47.5277 114.012 46.3977 112.625 44.9704C111.277 43.5035 110.266 41.7789 109.592 39.7965C108.957 37.8142 108.64 35.6733 108.64 33.3737ZM129.455 29.9839C129.415 29.2306 129.276 28.4972 129.039 27.7835C128.84 27.0699 128.503 26.4355 128.028 25.8805C127.591 25.3254 127.017 24.8695 126.303 24.5127C125.629 24.1559 124.777 23.9774 123.746 23.9774C122.755 23.9774 121.902 24.1559 121.188 24.5127C120.475 24.8298 119.88 25.266 119.404 25.821C118.929 26.3761 118.552 27.0302 118.274 27.7835C118.037 28.4972 117.858 29.2306 117.739 29.9839H129.455Z" fill="#FF36A3"/>
<path d="M108.64 33.3737C108.64 30.5985 109.057 28.18 109.889 26.1184C110.761 24.0171 111.891 22.2726 113.279 20.885C114.667 19.4973 116.252 18.4467 118.037 17.7331C119.86 17.0194 121.724 16.6626 123.627 16.6626C128.067 16.6626 131.576 18.0304 134.153 20.766C136.73 23.462 138.019 27.4465 138.019 32.7196C138.019 33.235 137.999 33.8099 137.959 34.4442C137.919 35.0389 137.88 35.5741 137.84 36.0499H117.739C117.937 37.8737 118.79 39.3208 120.296 40.3912C121.803 41.4617 123.825 41.9969 126.362 41.9969C127.988 41.9969 129.574 41.8582 131.12 41.5806C132.706 41.2635 133.994 40.8868 134.986 40.4507L136.175 47.6466C135.699 47.8845 135.065 48.1224 134.272 48.3603C133.479 48.5981 132.587 48.7964 131.596 48.955C130.644 49.1532 129.613 49.3118 128.503 49.4307C127.393 49.5497 126.283 49.6091 125.173 49.6091C122.358 49.6091 119.9 49.1928 117.799 48.3603C115.737 47.5277 114.012 46.3977 112.625 44.9704C111.277 43.5035 110.266 41.7789 109.592 39.7965C108.957 37.8142 108.64 35.6733 108.64 33.3737ZM129.455 29.9839C129.415 29.2306 129.276 28.4972 129.039 27.7835C128.84 27.0699 128.503 26.4355 128.028 25.8805C127.591 25.3254 127.017 24.8695 126.303 24.5127C125.629 24.1559 124.777 23.9774 123.746 23.9774C122.755 23.9774 121.902 24.1559 121.188 24.5127C120.475 24.8298 119.88 25.266 119.404 25.821C118.929 26.3761 118.552 27.0302 118.274 27.7835C118.037 28.4972 117.858 29.2306 117.739 29.9839H129.455Z" fill="#FF4F84"/>
<path d="M153.361 48.7765C151.339 44.8119 149.277 40.1732 147.176 34.8605C145.114 29.5478 143.152 23.7594 141.288 17.4952H150.685C151.081 19.0414 151.537 20.7264 152.053 22.5502C152.608 24.3343 153.163 26.158 153.718 28.0214C154.312 29.8452 154.887 31.6293 155.442 33.3737C156.037 35.1182 156.612 36.7041 157.167 38.1314C157.682 36.7041 158.238 35.1182 158.832 33.3737C159.427 31.6293 160.002 29.8452 160.557 28.0214C161.152 26.158 161.707 24.3343 162.222 22.5502C162.777 20.7264 163.253 19.0414 163.649 17.4952H172.808C170.944 23.7594 168.962 29.5478 166.861 34.8605C164.799 40.1732 162.757 44.8119 160.735 48.7765H153.361Z" fill="#FF36A3"/>
<path d="M153.361 48.7765C151.339 44.8119 149.277 40.1732 147.176 34.8605C145.114 29.5478 143.152 23.7594 141.288 17.4952H150.685C151.081 19.0414 151.537 20.7264 152.053 22.5502C152.608 24.3343 153.163 26.158 153.718 28.0214C154.312 29.8452 154.887 31.6293 155.442 33.3737C156.037 35.1182 156.612 36.7041 157.167 38.1314C157.682 36.7041 158.238 35.1182 158.832 33.3737C159.427 31.6293 160.002 29.8452 160.557 28.0214C161.152 26.158 161.707 24.3343 162.222 22.5502C162.777 20.7264 163.253 19.0414 163.649 17.4952H172.808C170.944 23.7594 168.962 29.5478 166.861 34.8605C164.799 40.1732 162.757 44.8119 160.735 48.7765H153.361Z" fill="#FF4F84"/>
<path d="M206 33.0764C206 35.5345 205.643 37.7944 204.93 39.856C204.216 41.878 203.185 43.6225 201.837 45.0894C200.489 46.5167 198.864 47.6268 196.961 48.4197C195.097 49.2127 192.996 49.6091 190.657 49.6091C188.357 49.6091 186.256 49.2127 184.353 48.4197C182.489 47.6268 180.884 46.5167 179.536 45.0894C178.188 43.6225 177.137 41.878 176.384 39.856C175.631 37.7944 175.254 35.5345 175.254 33.0764C175.254 30.6183 175.631 28.3782 176.384 26.3563C177.177 24.3343 178.247 22.6096 179.595 21.1823C180.983 19.7551 182.608 18.6449 184.472 17.852C186.375 17.0591 188.437 16.6626 190.657 16.6626C192.917 16.6626 194.978 17.0591 196.842 17.852C198.745 18.6449 200.37 19.7551 201.718 21.1823C203.066 22.6096 204.117 24.3343 204.87 26.3563C205.623 28.3782 206 30.6183 206 33.0764ZM196.961 33.0764C196.961 30.3408 196.406 28.1998 195.295 26.6536C194.225 25.0677 192.679 24.2748 190.657 24.2748C188.635 24.2748 187.069 25.0677 185.959 26.6536C184.848 28.1998 184.293 30.3408 184.293 33.0764C184.293 35.812 184.848 37.9926 185.959 39.6181C187.069 41.204 188.635 41.9969 190.657 41.9969C192.679 41.9969 194.225 41.204 195.295 39.6181C196.406 37.9926 196.961 35.812 196.961 33.0764Z" fill="#FF36A3"/>
<path d="M206 33.0764C206 35.5345 205.643 37.7944 204.93 39.856C204.216 41.878 203.185 43.6225 201.837 45.0894C200.489 46.5167 198.864 47.6268 196.961 48.4197C195.097 49.2127 192.996 49.6091 190.657 49.6091C188.357 49.6091 186.256 49.2127 184.353 48.4197C182.489 47.6268 180.884 46.5167 179.536 45.0894C178.188 43.6225 177.137 41.878 176.384 39.856C175.631 37.7944 175.254 35.5345 175.254 33.0764C175.254 30.6183 175.631 28.3782 176.384 26.3563C177.177 24.3343 178.247 22.6096 179.595 21.1823C180.983 19.7551 182.608 18.6449 184.472 17.852C186.375 17.0591 188.437 16.6626 190.657 16.6626C192.917 16.6626 194.978 17.0591 196.842 17.852C198.745 18.6449 200.37 19.7551 201.718 21.1823C203.066 22.6096 204.117 24.3343 204.87 26.3563C205.623 28.3782 206 30.6183 206 33.0764ZM196.961 33.0764C196.961 30.3408 196.406 28.1998 195.295 26.6536C194.225 25.0677 192.679 24.2748 190.657 24.2748C188.635 24.2748 187.069 25.0677 185.959 26.6536C184.848 28.1998 184.293 30.3408 184.293 33.0764C184.293 35.812 184.848 37.9926 185.959 39.6181C187.069 41.204 188.635 41.9969 190.657 41.9969C192.679 41.9969 194.225 41.204 195.295 39.6181C196.406 37.9926 196.961 35.812 196.961 33.0764Z" fill="#FF4F84"/>
<path d="M20.45 10.4833C19.3725 10.4833 18.4721 10.6309 17.7489 10.9261C17.0109 11.2213 16.4353 11.6346 16.022 12.1512C15.6087 12.6677 15.3135 13.2877 15.1364 13.9961C14.9593 14.7046 14.8707 15.4869 14.8707 16.3135V17.8633H25.8078V25.2432H14.856V49.1543H6V16.2101C6 12.1659 7.13651 8.94825 9.4243 6.5719C11.6973 4.19555 15.0773 3 19.5644 3L20.45 10.4833ZM40.9072 49.1396H32.0513V17.8633H40.9072V49.1396ZM25.8078 10.4833H19.1216V3H25.8078V10.4833ZM40.9072 10.4833H32.0513V3H40.9072V10.4833Z" fill="#4D3E91"/>
<path d="M52.5234 17.834C55.1802 17.834 57.9551 18.1882 59.7263 18.8672C61.4827 19.5461 62.8849 20.5055 63.9181 21.7454C64.9513 22.9852 65.6745 24.4612 66.1173 26.1733C66.5601 27.8855 66.7668 29.7895 66.7668 31.8854V49.1841H57.9108V32.9482C57.9108 30.1585 57.5271 28.1659 56.7743 26.9999C56.0215 25.8339 54.5751 25.2139 52.5234 25.2139" fill="#FF36A3"/>
<path d="M52.5234 17.834C55.1802 17.834 57.9551 18.1882 59.7263 18.8672C61.4827 19.5461 62.8849 20.5055 63.9181 21.7454C64.9513 22.9852 65.6745 24.4612 66.1173 26.1733C66.5601 27.8855 66.7668 29.7895 66.7668 31.8854V49.1841H57.9108V32.9482C57.9108 30.1585 57.5271 28.1659 56.7743 26.9999C56.0215 25.8339 54.5751 25.2139 52.5234 25.2139" fill="#FF4F84"/>
<path d="M52.5229 17.834H46.6484V25.2139H52.5229V17.834Z" fill="#FF36A3"/>
<path d="M52.5229 17.834H46.6484V25.2139H52.5229V17.834Z" fill="#FF4F84"/>
</svg>
