<svg width="213" height="207" viewBox="0 0 213 207" fill="none" xmlns="http://www.w3.org/2000/svg">
<g opacity="0.4">
<mask id="mask0_52_7175" style="mask-type:alpha" maskUnits="userSpaceOnUse" x="24" y="101" width="189" height="106">
<path fill-rule="evenodd" clip-rule="evenodd" d="M80.1856 207C66.1274 207 52.0666 204.52 41.3369 199.56C32.7417 195.571 27.5795 190.59 25.8937 185.412L25.8504 185.263C25.7156 184.792 25.6006 184.331 25.4934 183.862C25.4657 183.772 25.4579 183.675 25.4398 183.586C25.0075 181.511 24.8631 179.385 25.0058 177.277C27.3556 179.243 29.9527 181.113 32.8091 182.87C40.9617 187.884 52.7444 191.105 66.4482 191.106C80.4597 191.106 96.4804 187.74 112.696 179.484C145.769 162.644 155.015 132.059 151.35 109.678C151.274 109.213 151.192 108.75 151.104 108.292C151.018 107.835 150.924 107.379 150.827 106.93C150.728 106.48 150.625 106.033 150.516 105.592C150.407 105.149 150.294 104.713 150.175 104.279C150.056 103.846 149.932 103.419 149.802 102.994C149.674 102.571 149.539 102.15 149.399 101.736C149.353 101.596 149.304 101.454 149.256 101.314C149.256 101.314 203.324 132.338 208.316 135.144C213.308 137.95 215.702 144.396 208.316 149.576C200.93 154.755 122.793 197.627 122.793 197.627C121.625 198.293 120.367 198.941 119.021 199.56C108.299 204.52 94.2438 207 80.1856 207Z" fill="white"/>
</mask>
<g mask="url(#mask0_52_7175)">
<path fill-rule="evenodd" clip-rule="evenodd" d="M80.1856 207C66.1274 207 52.0666 204.52 41.3369 199.56C32.7417 195.571 27.5795 190.59 25.8937 185.412L25.8504 185.263C25.7156 184.792 25.6006 184.331 25.4934 183.862C25.4657 183.772 25.4579 183.675 25.4398 183.586C25.0075 181.511 24.8631 179.385 25.0058 177.277C27.3556 179.243 29.9527 181.113 32.8091 182.87C40.9617 187.884 52.7444 191.105 66.4482 191.106C80.4597 191.106 96.4804 187.74 112.696 179.484C145.769 162.644 155.015 132.059 151.35 109.678C151.274 109.213 151.192 108.75 151.104 108.292C151.018 107.835 150.924 107.379 150.827 106.93C150.728 106.48 150.625 106.033 150.516 105.592C150.407 105.149 150.294 104.713 150.175 104.279C150.056 103.846 149.932 103.419 149.802 102.994C149.673 102.571 149.539 102.15 149.399 101.736C149.353 101.596 149.304 101.454 149.256 101.314C149.256 101.314 203.091 132.338 208.316 135.144C213.54 137.95 213.973 146.115 208.316 149.576C202.659 153.036 122.793 197.627 122.793 197.627C121.625 198.293 120.367 198.941 119.021 199.56C108.299 204.52 94.2438 207 80.1856 207Z" fill="#0A013C"/>
</g>
</g>
<path fill-rule="evenodd" clip-rule="evenodd" d="M50.7223 183.117C46.7687 180.85 32.8091 180.393 32.8091 180.393L33.4523 187.224C33.4523 188.711 34.4396 190.192 36.4168 191.33C40.3643 193.599 46.7687 193.599 50.7223 191.33C54.6697 189.061 54.6697 185.387 50.7223 183.117" fill="#69153D"/>
<path fill-rule="evenodd" clip-rule="evenodd" d="M59.3547 199.153C59.5501 200.688 60.6809 202.195 62.7255 203.373C67.2618 205.977 74.6276 205.977 79.1638 203.373C81.4315 202.066 82.5692 200.358 82.5692 198.655L83.9767 188.874L57.0654 189.15L59.3547 199.153" fill="#69153D"/>
<path fill-rule="evenodd" clip-rule="evenodd" d="M115.089 177.855C115.285 179.39 116.416 180.897 118.46 182.076C122.996 184.681 130.362 184.681 134.898 182.076C137.167 180.77 138.304 179.06 138.304 177.357L146.078 146.064L113.843 164.591L115.089 177.855" fill="#69153D"/>
<mask id="mask1_52_7175" style="mask-type:alpha" maskUnits="userSpaceOnUse" x="6" y="64" width="147" height="128">
<path fill-rule="evenodd" clip-rule="evenodd" d="M51.7649 74.3858C7.98483 96.3749 -13.4263 154.429 32.8091 182.87C49.2984 193.013 80.6222 195.815 112.696 179.484C156.515 157.173 158.507 110.734 144.064 91.2141C129.621 71.6937 95.545 52.3976 51.7649 74.3858V74.3858Z" fill="white"/>
</mask>
<g mask="url(#mask1_52_7175)">
<path fill-rule="evenodd" clip-rule="evenodd" d="M-13.4263 195.815H158.507V52.3975H-13.4263V195.815Z" fill="#8E205D"/>
<path fill-rule="evenodd" clip-rule="evenodd" d="M150.174 59.2074C158.773 78.2129 157.065 99.6639 147.354 118.981C137.642 138.3 119.926 155.485 96.5087 165.959C49.6734 186.907 -2.23675 173.074 -19.4341 135.063H-14.291V75.2887H-16.614C-11.7587 65.6299 -4.90211 56.5041 3.66889 48.4836V51.5384H142.174V46.1069C145.332 50.0824 148.023 54.4558 150.174 59.2074" fill="#8E205D"/>
<path fill-rule="evenodd" clip-rule="evenodd" d="M149.489 59.5134C158.019 78.3651 156.326 99.6433 146.693 118.806C137.059 137.968 119.487 155.015 96.2575 165.404C49.8 186.182 -1.69088 172.461 -18.749 134.758H-14.2906V75.4641H-15.9531C-11.1359 65.8835 -4.33463 56.8316 4.16635 48.8756V51.5385H141.556V46.5195C144.687 50.4614 147.356 54.7996 149.489 59.5134" fill="#90205D"/>
<path fill-rule="evenodd" clip-rule="evenodd" d="M148.805 59.8173C157.266 78.516 155.586 99.6215 146.031 118.628C136.477 137.634 119.047 154.543 96.0065 164.849C49.9259 185.457 -1.14561 171.848 -18.0654 134.451H-14.2909V75.6408H-15.292C-10.5146 66.1376 -3.76861 57.1579 4.6632 49.2672V51.5373H140.936V46.9292C144.042 50.8402 146.69 55.1431 148.805 59.8173" fill="#911F5D"/>
<path fill-rule="evenodd" clip-rule="evenodd" d="M148.121 60.1241C164.903 97.2155 141.459 143.854 95.7552 164.293C50.0533 184.733 -0.599853 171.236 -17.3813 134.145H-14.2906V75.8161H-14.6304C-9.89188 66.3911 -3.20124 57.4853 5.16141 49.6599V51.538H140.317V47.3408C143.396 51.22 146.024 55.4877 148.121 60.1241" fill="#921F5D"/>
<path fill-rule="evenodd" clip-rule="evenodd" d="M147.437 60.4296C164.08 97.2141 140.829 143.467 95.5043 163.738C50.1793 184.01 -0.0553797 170.622 -16.6977 133.839H-14.2908V90.3317H-19.5308C-18.1838 85.4692 -16.319 80.666 -13.9692 75.9918C-9.26959 66.645 -2.63342 57.8131 5.6592 50.0514V51.5375H139.697V47.7529C142.751 51.5994 145.357 55.831 147.437 60.4296" fill="#931F5D"/>
<path fill-rule="evenodd" clip-rule="evenodd" d="M146.754 60.7364C163.258 97.214 140.2 143.081 95.2534 163.184C50.3062 183.286 0.489988 170.012 -16.014 133.534H-14.291V90.3892H-18.8237C-17.4889 85.5671 -15.6396 80.8043 -13.3089 76.1696C-8.64901 66.8993 -2.06817 58.1422 6.15615 50.4449V51.5383H139.077V48.1646C142.106 51.9792 144.69 56.1764 146.754 60.7364" fill="#951F5D"/>
<path fill-rule="evenodd" clip-rule="evenodd" d="M146.069 61.0418C162.435 97.2126 139.572 142.695 95.0022 162.629C50.4328 182.562 1.03497 169.399 -15.3298 133.228H-14.2906V90.4453H-18.1162C-16.7917 85.6636 -14.9563 80.9404 -12.6472 76.3452C-8.02622 67.1532 -1.50071 58.4691 6.65531 50.8372V51.5377H138.458V48.5757C141.461 52.3577 144.024 56.5197 146.069 61.0418" fill="#961F5D"/>
<path fill-rule="evenodd" clip-rule="evenodd" d="M145.385 61.3478C161.613 97.2134 138.943 142.31 94.7513 162.074C50.5597 181.838 1.58033 168.787 -14.6461 132.923H-14.2908V104.833H-19.7944C-19.261 95.2537 -16.568 85.6361 -11.986 76.5223C-7.40392 67.4076 -0.935464 58.7975 7.1514 51.2291V51.5386H137.839V48.9883C140.817 52.7385 143.358 56.8652 145.385 61.3478" fill="#971F5D"/>
<path fill-rule="evenodd" clip-rule="evenodd" d="M144.702 61.6541C160.791 97.212 138.314 141.923 94.5 161.519C50.6862 181.114 2.12525 168.174 -13.962 132.616C-17.9838 123.727 -19.5962 114.265 -19.0662 104.766C-18.5371 95.2677 -15.8666 85.7327 -11.3243 76.698C-6.78206 67.6615 -0.36807 59.1236 7.64963 51.6214C9.65362 49.7459 11.7579 47.9348 13.9581 46.1968V51.538H137.219V49.3995C140.172 53.1179 142.691 57.2094 144.702 61.6541" fill="#991F5D"/>
<path fill-rule="evenodd" clip-rule="evenodd" d="M144.018 61.9589C159.967 97.2108 137.685 141.536 94.2492 160.963C50.8132 180.391 2.67068 167.562 -13.2783 132.31C-17.2655 123.497 -18.864 114.116 -18.3393 104.7C-17.8136 95.2846 -15.1664 85.8321 -10.663 76.8738C-6.15969 67.9156 0.199834 59.4524 8.14751 52.0138C10.1342 50.1538 12.2203 48.3582 14.4024 46.6348V51.5377H136.6V49.81C139.527 53.4966 142.024 57.5528 144.018 61.9589" fill="#991F5D"/>
<path fill-rule="evenodd" clip-rule="evenodd" d="M143.334 62.2662C159.144 97.2104 137.056 141.151 93.9972 160.409C50.939 179.666 3.21577 166.949 -12.5949 132.004C-16.5475 123.269 -18.1313 113.969 -17.6118 104.635C-17.0913 95.3005 -14.4674 85.9305 -10.003 77.0505C-5.53852 68.1704 0.764808 59.7804 8.64332 52.4071C10.6136 50.5642 12.6807 48.7841 14.8438 47.0762V51.5381H135.98V50.223C138.883 53.8778 141.357 57.8988 143.334 62.2662" fill="#9A1F5D"/>
<path fill-rule="evenodd" clip-rule="evenodd" d="M142.65 62.5709C158.322 97.2092 136.427 140.764 93.7465 159.853C51.0661 178.942 3.76137 166.336 -11.9109 131.698C-19.7479 114.379 -18.1918 94.8308 -9.34066 77.2263C-4.91597 68.4245 1.33203 60.1075 9.14224 52.7978C11.0935 50.9704 13.1433 49.2066 15.2874 47.5142V51.5377H135.361V50.6326C138.238 54.2556 140.691 58.2405 142.65 62.5709" fill="#9B205C"/>
<path fill-rule="evenodd" clip-rule="evenodd" d="M141.966 62.8775C157.5 97.2098 135.799 140.379 93.496 159.299C51.1917 178.218 4.30713 165.725 -11.2268 131.393C-18.9938 114.226 -17.4524 94.8511 -8.68079 77.4022C-4.295 68.6786 1.89853 60.4355 9.63871 53.1912C11.5735 51.3802 13.6052 49.6318 15.7311 47.9531V51.5383H134.741V51.0449C137.593 54.6353 140.024 58.5849 141.966 62.8775" fill="#9C205D"/>
<path fill-rule="evenodd" clip-rule="evenodd" d="M141.282 63.1827C156.677 97.208 135.17 139.992 93.2442 158.742C51.3186 177.494 4.85065 165.111 -10.5433 131.086C-18.2402 114.072 -16.7126 94.87 -8.01882 77.5776C-3.6728 68.9313 2.4654 60.7622 10.1364 53.5823C12.0548 51.7867 14.0683 50.0547 16.1735 48.3906V51.5374H134.122V51.4566C136.948 55.0143 139.359 58.9296 141.282 63.1827" fill="#9E215D"/>
<path fill-rule="evenodd" clip-rule="evenodd" d="M140.598 63.4902C155.855 97.2087 134.54 139.607 92.9935 158.19C51.4448 176.771 5.3962 164.5 -9.85939 130.782C-17.4872 113.922 -15.9734 94.8931 -7.35829 77.7562C-3.05117 69.1882 3.03083 61.0929 10.6336 53.9775C12.5338 52.1991 14.53 50.4817 16.617 48.834V51.539H129.001V46.8467C130.6 48.4308 132.103 50.1061 133.503 51.869C136.303 55.3958 138.691 59.2749 140.598 63.4902" fill="#9F225D"/>
<path fill-rule="evenodd" clip-rule="evenodd" d="M139.914 63.7942C155.033 97.2067 133.912 139.22 92.7419 157.633C51.5719 176.047 5.94168 163.886 -9.17558 130.475C-16.7342 113.769 -15.2342 94.9126 -6.69696 77.9313C-2.42788 69.4398 3.59879 61.4176 11.1324 54.3675C13.0153 52.6046 14.9925 50.9027 17.0605 49.2695V51.5379H128.423V47.3037C130.006 48.8724 131.496 50.5322 132.883 52.2797C135.658 55.7729 138.025 59.6177 139.914 63.7942" fill="#A0235D"/>
<path fill-rule="evenodd" clip-rule="evenodd" d="M139.231 64.1007C154.209 97.2055 133.283 138.834 92.4916 157.078C51.6985 175.322 6.48763 163.275 -8.4913 130.168C-15.9799 113.616 -14.4929 94.9328 -6.0343 78.1071C-1.80499 69.693 4.16636 61.7447 11.6299 54.76C13.4964 53.0125 15.4555 51.3269 17.5053 49.7084V51.5375H127.845V47.7598C129.414 49.3147 130.89 50.9599 132.265 52.6902C135.014 56.1524 137.358 59.962 139.231 64.1007" fill="#A1245D"/>
<path fill-rule="evenodd" clip-rule="evenodd" d="M138.547 64.4065C153.387 97.2062 132.654 138.448 92.24 156.523C51.8256 174.599 7.03232 162.663 -7.80743 129.863C-15.2269 113.464 -13.7537 94.9533 -5.37376 78.284C-1.18423 69.9489 4.73265 62.0737 12.1279 55.1526C15.8255 51.692 19.8931 48.4704 24.2988 45.5488V51.5382H127.268V48.2177C128.821 49.7581 130.284 51.3869 131.646 53.1026C134.37 56.5322 136.693 60.3065 138.547 64.4065" fill="#A2255D"/>
<path fill-rule="evenodd" clip-rule="evenodd" d="M137.863 64.7118C152.565 97.2046 132.026 138.062 91.9893 155.968C51.9519 173.874 7.57787 162.05 -7.12355 129.556C-14.4738 113.311 -13.0145 94.9732 -4.71323 78.4586C-0.56173 70.2017 5.29895 62.4004 12.625 55.5447C16.2881 52.1159 20.3168 48.9244 24.6818 46.0303V51.5374H126.688V48.6734C128.229 50.2008 129.678 51.8142 131.027 53.5127C133.725 56.9113 136.026 60.6504 137.863 64.7118" fill="#A3265D"/>
<path fill-rule="evenodd" clip-rule="evenodd" d="M137.179 65.019C151.742 97.2049 131.397 137.676 91.7378 155.414C52.0789 173.151 8.12335 161.438 -6.43975 129.252C-13.7209 113.159 -12.2754 94.9941 -4.0519 78.636C0.0598291 70.4565 5.86605 62.7291 13.1221 55.9387C16.7505 52.5417 20.7421 49.3811 25.0657 46.5137V51.5386H126.111V49.1319C127.636 50.6447 129.07 52.2434 130.407 53.9264C133.08 57.2925 135.36 60.9954 137.179 65.019" fill="#A4265D"/>
<path fill-rule="evenodd" clip-rule="evenodd" d="M136.496 65.3236C150.919 97.2027 130.768 137.289 91.487 154.858C52.2051 172.426 8.66883 160.824 -5.75594 128.945C-12.9679 113.005 -11.5362 95.0134 -3.39058 78.8108C0.68225 70.7096 6.43314 63.0552 13.62 56.3284C17.2139 52.965 21.1683 49.8336 25.4503 46.9937V51.5372H125.531V49.5895C127.042 51.0868 128.463 52.6701 129.787 54.3368C132.435 57.671 134.692 61.3387 136.496 65.3236" fill="#A6275D"/>
<path fill-rule="evenodd" clip-rule="evenodd" d="M135.811 65.6301C150.097 97.2023 130.139 136.903 91.236 154.302C52.3319 171.702 9.21323 160.213 -5.07235 128.64C-12.2151 112.852 -10.7964 95.0345 -2.73032 78.9875C1.3036 70.9645 6.99916 63.3849 14.1177 56.7226C17.6779 53.3909 21.5925 50.2897 25.8331 47.4781V51.5377H120.207V45.8535C126.867 51.0994 132.24 57.7368 135.811 65.6301" fill="#A7285D"/>
<path fill-rule="evenodd" clip-rule="evenodd" d="M135.127 65.9356C149.273 97.2027 129.51 136.518 90.9834 153.748C52.458 170.979 9.75777 159.6 -4.38862 128.334C-11.4622 112.7 -10.0574 95.0546 -2.0682 79.1641C1.92595 71.2184 7.56618 63.7111 14.6165 57.1149C18.1403 53.8159 22.0169 50.7447 26.2159 47.9589V51.5381H119.676V46.3516C126.269 51.5458 131.591 58.1197 135.127 65.9356" fill="#A8295D"/>
<path fill-rule="evenodd" clip-rule="evenodd" d="M134.444 66.2428C148.451 97.2022 128.882 136.131 90.7338 153.193C52.5854 170.255 10.3035 158.988 -3.70454 128.028C-10.7081 112.548 -9.31796 95.0756 -1.40833 79.3407C2.54692 71.4732 8.13095 64.0398 15.1121 57.5081C18.6022 54.2409 22.4407 51.1998 26.6 48.4424V51.5385H119.142V46.8496C125.673 51.9932 130.942 58.5026 134.444 66.2428" fill="#A92A5D"/>
<path fill-rule="evenodd" clip-rule="evenodd" d="M133.759 66.5469C147.629 97.2002 128.253 135.744 90.4823 152.638C52.7116 169.531 10.8491 158.375 -3.01976 127.721C-9.95419 112.395 -8.57785 95.0952 -0.746029 79.5158C3.16945 71.7265 8.69988 64.3662 15.611 57.8989C19.0665 54.6644 22.867 51.6534 26.9848 48.9226V51.5374H118.611V47.3462C125.075 52.4382 130.292 58.8831 133.759 66.5469" fill="#AA2B5D"/>
<path fill-rule="evenodd" clip-rule="evenodd" d="M133.075 66.8531C146.806 97.1996 127.623 135.359 90.2306 152.083C52.8385 168.806 11.3944 157.763 -2.3361 127.416C-9.20051 112.243 -7.83801 95.1169 -0.0848525 79.6922C3.79086 71.9803 9.2651 64.6948 16.107 58.2911C19.528 55.0893 23.2922 52.1084 27.3676 49.4051V51.5376H118.077V47.8433C124.478 52.8863 129.643 59.2658 133.075 66.8531" fill="#AC2C5E"/>
<path fill-rule="evenodd" clip-rule="evenodd" d="M132.391 67.1596C145.984 97.1992 126.995 134.973 89.9799 151.528C52.9648 168.083 11.9391 157.15 -1.65223 127.11C-8.44747 112.091 -7.0988 95.1372 0.575681 79.8689C4.41422 72.2361 9.83226 65.0236 16.605 58.6844C19.9914 55.5144 23.7176 52.5644 27.7532 49.8886V51.5381H117.545V48.3423C123.881 53.3337 128.993 59.6497 132.391 67.1596" fill="#AD2D5E"/>
<path fill-rule="evenodd" clip-rule="evenodd" d="M131.708 67.4652C145.161 97.1988 126.366 134.586 89.7284 150.972C53.0911 167.358 12.4847 156.537 -0.968287 126.804C-7.69437 111.938 -6.35866 95.1566 1.23801 80.0448C5.03591 72.4884 10.3995 65.3507 17.1031 59.0769C20.4549 55.9395 24.1421 53.0196 28.1363 50.3705V51.5377H117.013V48.8413C123.284 53.7803 128.345 60.0318 131.708 67.4652" fill="#AD2D5E"/>
<path fill-rule="evenodd" clip-rule="evenodd" d="M131.024 67.7715C144.338 97.1991 125.737 134.2 89.4767 150.418C53.2173 166.635 13.0294 155.926 -0.284484 126.498C-6.9414 111.785 -5.61953 95.1774 1.89933 80.2212C5.65833 72.7431 10.9666 65.6785 17.6019 59.4691C20.9191 56.3644 24.5674 53.4728 28.5201 50.8529V51.538H116.48V49.3384C122.686 54.2275 127.694 60.4154 131.024 67.7715" fill="#AE2F5E"/>
<path fill-rule="evenodd" clip-rule="evenodd" d="M130.34 68.078C143.515 97.1987 125.109 133.815 89.2261 149.863C53.3435 165.911 13.5749 155.314 0.399394 126.193C-6.18836 111.632 -4.88032 95.1985 2.55987 80.3988C6.27996 72.998 11.5329 66.0056 18.099 59.8615C21.3825 56.7895 24.9937 53.928 28.9048 51.3347V51.5385H115.948V49.8374C122.091 54.6758 127.047 60.7976 130.34 68.078" fill="#AF2F5E"/>
<path fill-rule="evenodd" clip-rule="evenodd" d="M129.656 68.3822C142.693 97.1969 124.48 133.428 88.9754 149.308C53.4706 165.187 14.1196 154.701 1.08327 125.886C-5.43532 111.479 -4.14112 95.2183 3.2204 80.5741C6.90159 73.2515 12.0983 66.3339 18.5953 60.2534C21.8434 57.2132 25.4165 54.3826 29.287 51.8152C31.2227 50.5319 33.2327 49.3139 35.3128 48.1689V51.5375H115.415V50.3333C121.493 55.1201 126.397 61.1783 129.656 68.3822" fill="#B0315E"/>
<path fill-rule="evenodd" clip-rule="evenodd" d="M128.972 68.6885C141.871 97.1964 123.851 133.041 88.7238 148.751C53.5968 164.462 14.6651 154.088 1.76707 125.58C-4.68236 111.326 -3.40198 95.2375 3.88173 80.7497C7.52229 73.5054 12.6663 66.6608 19.0932 60.6457C22.3076 57.6381 25.8427 54.8368 29.6717 52.2977C31.5858 51.0282 33.5742 49.8239 35.6326 48.6919V51.537H114.884V50.8313C120.896 55.5675 125.747 61.5602 128.972 68.6885" fill="#B1325D"/>
<path fill-rule="evenodd" clip-rule="evenodd" d="M128.288 68.9948C141.048 97.1958 123.222 132.656 88.4731 148.198C53.724 163.74 15.2107 153.477 2.45098 125.275C-10.3087 97.0738 7.51802 61.6138 42.2663 46.0723V51.5382H114.351V51.3293C120.299 56.0147 125.097 61.9448 128.288 68.9948" fill="#B2335D"/>
<path fill-rule="evenodd" clip-rule="evenodd" d="M127.605 69.3C140.225 97.1942 122.593 132.269 88.2215 147.642C53.8502 163.014 15.7562 152.863 3.13482 124.969C-9.48653 97.0738 8.14653 61.999 42.5178 46.6259V51.5374H104.199V45.8145C107.652 47.5009 110.877 49.5105 113.818 51.827C119.702 56.4617 124.449 62.3264 127.605 69.3" fill="#B3345D"/>
<path fill-rule="evenodd" clip-rule="evenodd" d="M126.921 69.607C139.403 97.1943 121.965 131.884 87.9709 147.088C53.9774 162.292 16.3018 152.251 3.81881 124.663C-8.66335 97.0757 8.77519 62.3859 42.7687 47.1821V51.5383H103.773V46.3784C107.188 48.0477 110.377 50.035 113.286 52.3265C119.105 56.9096 123.8 62.7099 126.921 69.607" fill="#B4355E"/>
<path fill-rule="evenodd" clip-rule="evenodd" d="M126.237 69.911C138.58 97.1931 121.336 131.497 87.719 146.531C54.1033 161.566 16.8461 151.638 4.5023 124.357C-7.84067 97.0754 9.40335 62.7715 43.0199 47.7371V51.5372H103.345V46.9429C106.723 48.5924 109.877 50.5581 112.754 52.8231C118.508 57.3555 123.151 63.0913 126.237 69.911" fill="#B6365E"/>
<path fill-rule="evenodd" clip-rule="evenodd" d="M125.553 70.2188C137.758 97.1941 120.707 131.112 87.4687 145.978C54.2308 160.844 17.3912 151.026 5.18654 124.052C-7.0181 97.0763 10.0331 63.1584 43.271 48.2925V51.5381H102.919V47.5068C106.258 49.1374 109.378 51.0809 112.222 53.3226C117.912 57.8026 122.502 63.4747 125.553 70.2188" fill="#B7375E"/>
<path fill-rule="evenodd" clip-rule="evenodd" d="M124.869 70.5245C136.935 97.1938 120.078 130.727 87.2166 145.423C54.3565 160.12 17.9362 150.415 5.86989 123.746C-6.19642 97.0778 10.6611 63.5441 43.5221 48.8475V51.5387H102.492V48.0713C105.792 49.6829 108.877 51.604 111.689 53.82C117.314 58.2501 121.852 63.857 124.869 70.5245" fill="#B8375E"/>
<path fill-rule="evenodd" clip-rule="evenodd" d="M124.186 70.83C136.113 97.1925 119.449 130.34 86.9664 144.868C54.4841 159.396 18.4823 149.802 6.55428 123.441C-5.37285 97.0781 11.2911 63.9295 43.7734 49.4022V51.5382H102.065V48.6338C105.327 50.2283 108.377 52.1279 111.156 54.318C116.716 58.6974 121.204 64.2398 124.186 70.83" fill="#BA385E"/>
<path fill-rule="evenodd" clip-rule="evenodd" d="M123.501 71.1363C135.29 97.1919 118.82 129.955 86.7154 144.313C54.61 158.672 19.0266 149.191 7.23778 123.134C-4.55016 97.0793 11.9192 64.3166 44.0238 49.957V51.5385H101.639V49.1997C104.864 50.7744 107.877 52.6508 110.624 54.816C116.12 59.1447 120.554 64.6226 123.501 71.1363" fill="#BB395E"/>
<path fill-rule="evenodd" clip-rule="evenodd" d="M122.817 71.4414C134.467 97.1901 118.191 129.567 86.4638 143.757C54.7371 157.947 19.5721 148.577 7.92162 122.828C-3.72799 97.0793 12.5477 64.7016 44.2753 50.5122V51.5376H91.0752V45.9995C105.288 49.7867 116.993 58.5662 122.817 71.4414" fill="#BC3A5E"/>
<path fill-rule="evenodd" clip-rule="evenodd" d="M122.134 71.7477C133.644 97.1905 117.563 129.181 86.2131 143.202C54.8633 157.223 20.1177 147.964 8.60551 122.521C-2.90491 97.0796 13.1772 65.0879 44.5261 51.0669V51.5379H90.7692V46.6084C104.814 50.3509 116.378 59.0263 122.134 71.7477" fill="#BD3B5E"/>
<path fill-rule="evenodd" clip-rule="evenodd" d="M121.45 72.0542C132.822 97.19 116.933 128.796 85.9615 142.647C54.9895 156.5 20.6632 147.353 9.28935 122.217C-2.08274 97.0809 13.8057 65.4743 44.7777 51.6226C48.649 49.8906 52.5732 48.5196 56.4982 47.4933V51.5384H90.464V47.2183C104.339 50.9152 115.763 59.4849 121.45 72.0542" fill="#BE3C5E"/>
<path fill-rule="evenodd" clip-rule="evenodd" d="M120.766 72.3579C132 97.1878 116.304 128.408 85.7107 142.092C55.1157 155.775 21.2077 146.738 9.97311 121.909C-1.26066 97.0803 14.435 65.8588 45.0283 52.1756C52.6777 48.7555 60.5337 46.7553 68.19 46.0659V51.537H90.1587V47.8254C103.863 51.4777 115.149 59.9442 120.766 72.3579" fill="#C03D5E"/>
<path fill-rule="evenodd" clip-rule="evenodd" d="M120.082 72.6667C131.177 97.1888 115.676 128.024 85.4593 141.537C55.2429 155.052 21.7534 146.128 10.6571 121.605C-0.437492 97.0831 15.0636 66.2475 45.28 52.7336C52.8352 49.3547 60.5935 47.3786 68.1556 46.6987V51.5389H89.852V48.4359C103.388 52.0426 114.534 60.4043 120.082 72.6667" fill="#BF3E5E"/>
<path fill-rule="evenodd" clip-rule="evenodd" d="M119.398 72.9707C130.355 97.1868 115.048 127.637 85.2086 140.982C55.3692 154.327 22.2981 145.514 11.3419 121.298C0.384759 97.0828 15.6922 66.6323 45.5308 53.2869C52.99 49.951 60.6515 47.9998 68.1194 47.3276V51.5377H89.5452V49.0442C102.913 52.6053 113.92 60.863 119.398 72.9707" fill="#C13F5E"/>
<path fill-rule="evenodd" clip-rule="evenodd" d="M118.713 73.2783C129.531 97.1876 114.418 127.251 84.9568 140.427C55.496 153.604 22.8434 144.903 12.0263 120.993C1.20752 97.0836 16.3205 67.019 45.7821 53.843C60.512 47.2554 76.0408 46.1362 89.2397 49.6526C102.438 53.1699 113.305 61.3219 118.713 73.2783" fill="#C2405E"/>
<path fill-rule="evenodd" clip-rule="evenodd" d="M118.03 73.5828C128.708 97.1861 113.789 126.865 84.7061 139.872C55.6223 152.88 23.3889 144.29 12.7102 120.686C2.0306 97.0839 16.9499 67.4044 46.0329 54.3968C60.5752 47.8934 75.9043 46.7897 88.9337 50.2615C101.962 53.7332 112.69 61.7812 118.03 73.5828" fill="#C3415E"/>
<path fill-rule="evenodd" clip-rule="evenodd" d="M117.346 73.8879C127.886 97.1852 113.161 126.479 84.4554 139.317C55.7494 152.155 23.9336 143.678 13.3941 120.381C2.85278 97.0847 17.5784 67.7911 46.2836 54.952C60.6375 48.5329 75.7677 47.443 88.6268 50.8691C101.487 54.2962 112.076 62.2401 117.346 73.8879" fill="#C4425E"/>
<path fill-rule="evenodd" clip-rule="evenodd" d="M116.662 74.1944C127.064 97.184 112.531 126.092 84.2041 138.761C55.8759 151.431 24.4794 143.065 14.0773 120.075C3.67525 97.0852 18.2081 68.1767 46.5363 55.5069C60.7 49.172 75.6314 48.0967 88.321 51.4782C101.012 54.8597 111.461 62.6996 116.662 74.1944" fill="#C6435E"/>
<path fill-rule="evenodd" clip-rule="evenodd" d="M115.978 74.5003C126.242 97.1847 111.904 125.707 83.9532 138.207C56.0019 150.707 25.0247 142.453 14.7609 119.769C4.49805 97.0859 18.8355 68.5634 46.7859 56.0629C60.7611 49.8122 75.4937 48.7507 88.0147 52.0875C100.536 55.4243 110.846 63.1585 115.978 74.5003" fill="#C7445E"/>
<path fill-rule="evenodd" clip-rule="evenodd" d="M115.294 74.807C125.419 97.1838 111.274 125.32 83.7017 137.652C56.1291 149.984 25.5695 141.841 15.4458 119.463C5.32119 97.0858 19.465 68.9492 47.0385 56.6172C60.8244 50.4516 75.3563 49.4047 87.7079 52.6959C100.06 55.988 110.232 63.6182 115.294 74.807" fill="#C9455E"/>
<path fill-rule="evenodd" clip-rule="evenodd" d="M114.61 75.1123C124.596 97.183 110.646 124.935 83.4509 137.097C56.2561 149.261 26.1149 141.228 16.1295 119.157C6.14327 97.0868 20.0943 69.3361 47.2891 57.1726C60.8856 51.0913 75.2196 50.0589 87.4027 53.3055C99.5857 56.5511 109.617 64.0765 114.61 75.1123" fill="#CA465D"/>
<path fill-rule="evenodd" clip-rule="evenodd" d="M113.927 75.4175C123.774 97.1813 110.016 124.548 83.1993 136.542C56.3823 148.535 26.6596 140.615 16.8134 118.852C6.96545 97.0876 20.7228 69.7212 47.5398 57.7262C74.3568 45.7328 104.08 53.6528 113.927 75.4175" fill="#CB475D"/>
<path fill-rule="evenodd" clip-rule="evenodd" d="M113.242 75.7245C122.951 97.1815 109.388 124.163 82.9486 135.987C56.5086 147.813 27.2051 140.004 17.4964 118.546C7.78854 97.0896 21.3514 70.1082 47.7914 58.2834C74.2298 46.4576 103.534 54.2667 113.242 75.7245" fill="#CD485D"/>
<path fill-rule="evenodd" clip-rule="evenodd" d="M112.559 76.0308C122.128 97.1818 108.758 123.776 82.697 135.433C56.6356 147.088 27.7506 139.391 18.1811 118.241C8.61071 97.0898 21.9807 70.4944 48.0413 58.838C74.1036 47.1825 102.989 54.8798 112.559 76.0308" fill="#CE495D"/>
<path fill-rule="evenodd" clip-rule="evenodd" d="M111.875 76.3355C121.306 97.1805 108.13 123.39 82.4463 134.877C56.7618 146.365 28.2953 138.779 18.8649 117.934C9.43286 97.0902 22.6092 70.8799 48.2937 59.3929C73.9773 47.9058 102.444 55.4913 111.875 76.3355" fill="#CF4A5D"/>
<path fill-rule="evenodd" clip-rule="evenodd" d="M111.191 76.6412C120.483 97.1794 107.502 123.004 82.1949 134.322C56.8882 145.64 28.841 138.166 19.5489 117.628C10.256 97.09 23.2379 71.2656 48.5446 59.947C73.8512 48.6302 101.899 56.104 111.191 76.6412" fill="#D14B5D"/>
<path fill-rule="evenodd" clip-rule="evenodd" d="M110.508 76.9464C119.66 97.1777 106.873 122.617 81.9433 133.765C57.0145 144.915 29.3865 137.553 20.2328 117.322C11.0791 97.09 23.8673 71.6516 48.7962 60.5023C73.7251 49.3522 101.354 56.7151 110.508 76.9464" fill="#D24C5D"/>
<path fill-rule="evenodd" clip-rule="evenodd" d="M109.823 77.2541C118.838 97.1785 106.244 122.232 81.6935 133.213C57.1416 144.193 29.932 136.942 20.9167 117.017C11.9013 97.0926 24.4958 72.0392 49.0469 61.0584C73.598 50.0785 100.808 57.3297 109.823 77.2541" fill="#D34D5D"/>
<path fill-rule="evenodd" clip-rule="evenodd" d="M109.14 77.5597C118.015 97.1781 105.614 121.846 81.4411 132.657C57.2678 143.468 30.4767 136.33 21.6005 116.711C12.7244 97.0921 25.1253 72.4247 49.2985 61.6133C73.4718 50.8018 100.263 57.9413 109.14 77.5597" fill="#D54E5D"/>
<path fill-rule="evenodd" clip-rule="evenodd" d="M108.456 77.8641C117.193 97.1765 104.986 121.459 81.1908 132.102C57.3945 142.744 31.021 135.716 22.284 116.405C13.5462 97.0923 25.7525 72.8099 49.5489 62.167C73.3443 51.5257 99.7178 58.5534 108.456 77.8641" fill="#D64F5E"/>
<path fill-rule="evenodd" clip-rule="evenodd" d="M107.772 78.1707C116.371 97.1754 104.357 121.073 80.9388 131.546C57.5211 142.02 31.5669 135.103 22.9682 116.098C14.3687 97.0929 26.3823 73.1965 49.8008 62.722C73.2185 52.2483 99.1727 59.166 107.772 78.1707" fill="#D6515D"/>
<path fill-rule="evenodd" clip-rule="evenodd" d="M107.087 78.4772C115.548 97.1758 103.729 120.687 80.6879 130.992C57.648 141.297 32.1122 134.492 23.6519 115.794C15.1924 97.0959 27.0106 73.5837 50.0513 63.2786C73.0912 52.9742 98.627 59.7785 107.087 78.4772" fill="#D7525E"/>
<path fill-rule="evenodd" clip-rule="evenodd" d="M106.403 78.7838C114.725 97.1748 103.099 120.301 80.4371 130.437C57.7741 140.573 32.6577 133.879 24.3356 115.488C16.0145 97.0957 27.6399 73.9695 50.302 63.8337C72.9649 53.6978 98.0814 60.3912 106.403 78.7838" fill="#D8535E"/>
<path fill-rule="evenodd" clip-rule="evenodd" d="M105.719 79.0885C113.902 97.1743 102.47 119.915 80.1854 129.882C57.9011 139.848 33.2022 133.267 25.0194 115.181C16.8366 97.0952 28.2692 74.3549 50.5534 64.3875C72.8377 54.4219 97.5374 61.0026 105.719 79.0885" fill="#DA545E"/>
<path fill-rule="evenodd" clip-rule="evenodd" d="M105.037 79.3938C113.079 97.1728 101.841 119.528 79.9348 129.326C58.0275 139.124 33.7479 132.654 25.7034 114.875C17.6597 97.0955 28.8978 74.7402 50.8043 64.9422C72.7116 55.145 96.9921 61.6149 105.037 79.3938" fill="#DB555E"/>
<path fill-rule="evenodd" clip-rule="evenodd" d="M104.353 79.7012C112.257 97.1733 101.213 119.143 79.6833 128.772C58.1547 138.402 34.2926 132.044 26.3873 114.57C18.482 97.0977 29.5256 75.1284 51.056 65.4989C72.5846 55.8693 96.4467 62.2283 104.353 79.7012" fill="#DD565E"/>
<path fill-rule="evenodd" clip-rule="evenodd" d="M103.668 80.0064C111.435 97.1725 100.584 118.758 79.4325 128.217C58.2808 137.677 34.838 131.431 27.0711 114.265C19.3041 97.0986 30.1549 75.5143 51.3066 66.0541C72.4583 56.5939 95.901 62.8411 103.668 80.0064" fill="#DE575E"/>
<path fill-rule="evenodd" clip-rule="evenodd" d="M102.984 80.3124C110.612 97.1708 99.956 118.37 79.1812 127.662C58.4081 136.953 35.3838 130.817 27.756 113.957C20.1282 97.0986 30.7845 75.8994 51.5584 66.6077C72.3315 57.3168 95.3558 63.4531 102.984 80.3124" fill="#E0585E"/>
<path fill-rule="evenodd" clip-rule="evenodd" d="M102.3 80.6177C109.789 97.1709 99.3266 117.984 78.9305 127.107C58.5344 136.229 35.9285 130.205 28.4399 113.652C20.9504 97.0987 31.413 76.2855 51.8091 67.1631C72.2053 58.0415 94.8111 64.0653 102.3 80.6177" fill="#E0595E"/>
<path fill-rule="evenodd" clip-rule="evenodd" d="M101.616 80.9235C108.967 97.1699 98.6971 117.598 78.6788 126.552C58.6613 135.505 36.4739 129.592 29.1236 113.347C21.7725 97.0994 32.0423 76.6722 52.0606 67.7182C72.078 58.7651 94.2655 64.678 101.616 80.9235" fill="#E15A5E"/>
<path fill-rule="evenodd" clip-rule="evenodd" d="M100.932 81.2286C108.145 97.1681 98.0694 117.211 78.4281 125.995C58.7867 134.78 37.0194 128.979 29.8075 113.039C22.5947 97.0994 32.6708 77.0563 52.3113 68.2726C71.9527 59.4879 93.7208 65.2891 100.932 81.2286" fill="#E15B5D"/>
<path fill-rule="evenodd" clip-rule="evenodd" d="M100.248 81.5359C107.322 97.1686 97.4402 116.827 78.1775 125.442C58.9139 134.057 37.5651 128.368 30.4915 112.735C23.4178 97.1015 33.2995 77.4436 52.5622 68.8283C71.8258 60.213 93.1755 65.9024 100.248 81.5359" fill="#E15C5D"/>
<path fill-rule="evenodd" clip-rule="evenodd" d="M99.5643 81.8407C106.5 97.1683 96.8117 116.44 77.9259 124.886C59.0401 133.332 38.1089 127.755 31.1753 112.429C24.24 97.1012 33.928 77.8292 52.8137 69.3832C71.6995 60.9373 92.6308 66.514 99.5643 81.8407" fill="#E15D5D"/>
<path fill-rule="evenodd" clip-rule="evenodd" d="M98.8806 82.1474C105.678 97.1672 96.1823 116.054 77.6752 124.332C59.1673 132.609 38.6544 127.142 31.8592 112.123C25.0631 97.1019 34.5574 78.2158 53.0645 69.9383C71.5733 61.6608 92.0853 67.1267 98.8806 82.1474" fill="#E15E5D"/>
<path fill-rule="evenodd" clip-rule="evenodd" d="M98.1963 82.4522C104.854 97.166 95.5534 115.668 77.4232 123.776C59.293 131.884 39.1995 126.529 32.5426 111.816C25.8857 97.1024 35.1863 78.6014 53.3156 70.4924C71.4458 62.3843 91.5393 67.7393 98.1963 82.4522" fill="#E15E5D"/>
<path fill-rule="evenodd" clip-rule="evenodd" d="M97.5124 82.7603C104.031 97.1664 94.924 115.283 77.1725 123.222C59.4201 131.162 39.745 125.919 33.2264 111.511C26.7078 97.1045 35.8149 78.9886 53.5664 71.0497C71.3187 63.1092 90.9938 68.3525 97.5124 82.7603" fill="#E15F5D"/>
<path fill-rule="evenodd" clip-rule="evenodd" d="M96.8286 83.0652C103.209 97.1653 94.2963 114.896 76.9209 122.666C59.5463 130.437 40.2897 125.306 33.9103 111.205C27.53 97.1051 36.4434 79.3743 53.8179 71.6039C71.1925 63.8336 90.4491 68.9651 96.8286 83.0652" fill="#E1605D"/>
<path fill-rule="evenodd" clip-rule="evenodd" d="M96.1448 83.3699C102.386 97.1649 93.6671 114.51 76.6703 122.112C59.6736 129.714 40.8354 124.694 34.5943 110.9C28.3532 97.1047 37.072 79.7598 54.0688 72.1588C71.0664 64.5569 89.9046 69.5767 96.1448 83.3699" fill="#E2615D"/>
<path fill-rule="evenodd" clip-rule="evenodd" d="M95.4609 83.6764C101.564 97.1636 93.0385 114.123 76.4186 121.556C59.7997 128.989 41.3808 124.081 35.278 110.592C29.1753 97.1052 37.7013 80.1462 54.3203 72.7128C70.9392 65.2803 89.359 70.1892 95.4609 83.6764" fill="#E2625D"/>
<path fill-rule="evenodd" clip-rule="evenodd" d="M94.7771 83.981C100.741 97.163 92.4091 113.737 76.1679 121C59.9268 128.264 41.9263 123.468 35.9619 110.287C29.9974 97.1054 38.3298 80.5316 54.571 73.2684C70.813 66.0043 88.8135 70.8006 94.7771 83.981" fill="#E2635E"/>
<path fill-rule="evenodd" clip-rule="evenodd" d="M94.0934 84.289C99.9178 97.1625 91.7799 113.351 75.9174 120.446C60.0532 127.542 42.4711 122.856 36.6459 109.982C30.8215 97.1075 38.9594 80.9187 54.8219 73.8239C70.6861 66.7283 88.2682 71.4137 94.0934 84.289" fill="#E2645E"/>
<path fill-rule="evenodd" clip-rule="evenodd" d="M93.4096 84.5941C99.0957 97.1616 91.1523 112.965 75.6659 119.892C60.1804 126.818 43.0159 122.243 37.3298 109.676C31.6438 97.1083 39.5871 81.3046 55.0736 74.3792C70.56 67.4529 87.7236 72.0266 93.4096 84.5941" fill="#E2655E"/>
<path fill-rule="evenodd" clip-rule="evenodd" d="M92.7257 84.8994C98.2734 97.161 90.5229 112.579 75.4151 119.336C60.3065 126.093 43.5613 121.631 38.0136 109.37C32.4659 97.1077 40.2164 81.6907 55.325 74.9329C70.4328 68.176 87.178 72.6379 92.7257 84.8994" fill="#E2655E"/>
<path fill-rule="evenodd" clip-rule="evenodd" d="M92.042 85.2054C97.4505 97.1601 89.8945 112.193 75.1637 118.781C60.4337 125.369 44.107 121.018 38.6976 109.063C33.289 97.1085 40.8451 82.0766 55.5759 75.4882C70.3067 68.9006 86.6326 73.2508 92.042 85.2054" fill="#E3665E"/>
<path fill-rule="evenodd" clip-rule="evenodd" d="M91.358 85.5123C96.6282 97.1601 89.265 111.808 74.9128 118.226C60.5598 124.646 44.6524 120.407 39.3813 108.759C34.1111 97.1103 41.4744 82.4635 55.8274 76.0444C70.1795 69.6244 86.087 73.8637 91.358 85.5123" fill="#E3675E"/>
<path fill-rule="evenodd" clip-rule="evenodd" d="M90.6742 85.8183C95.8061 97.1601 88.6365 111.421 74.6613 117.672C60.6861 123.921 45.1971 119.794 40.0652 108.452C34.9342 97.1111 42.1038 82.8494 56.079 76.5996C70.0542 70.3489 85.5432 74.4765 90.6742 85.8183" fill="#E3685E"/>
<path fill-rule="evenodd" clip-rule="evenodd" d="M89.9905 86.1236C94.9832 97.1585 88.0073 111.034 74.4107 117.116C60.8125 123.197 45.7428 119.182 40.7492 108.146C35.7574 97.1113 42.7324 83.2347 56.329 77.1533C69.9273 71.072 84.9978 75.0878 89.9905 86.1236" fill="#E3695E"/>
<path fill-rule="evenodd" clip-rule="evenodd" d="M89.3067 86.4288C94.1602 97.1585 87.3796 110.648 74.1591 116.561C60.9395 122.473 46.2874 118.569 41.433 107.84C36.5795 97.1113 43.3609 83.6206 56.5814 77.7086C69.801 71.7966 84.4523 75.7007 89.3067 86.4288" fill="#E3695E"/>
<path fill-rule="evenodd" clip-rule="evenodd" d="M88.6228 86.7365C93.338 97.1586 86.7502 110.263 73.9076 116.006C61.0658 121.75 46.8329 117.957 42.1169 107.535C37.4017 97.113 43.9895 84.0083 56.8321 78.2648C69.6739 72.5204 83.9068 76.3136 88.6228 86.7365" fill="#E36A5E"/>
<path fill-rule="evenodd" clip-rule="evenodd" d="M87.9389 87.0413C92.5157 97.1574 86.1208 109.876 73.6576 115.451C61.1928 121.025 47.3775 117.345 42.8006 107.229C38.2238 97.1136 44.6187 84.3939 57.0828 78.8197C69.5476 73.2447 83.362 76.9253 87.9389 87.0413" fill="#E36B5F"/>
<path fill-rule="evenodd" clip-rule="evenodd" d="M87.2539 87.3461C91.6924 97.1553 85.4919 109.49 73.4057 114.896C61.3187 120.301 47.9227 116.732 43.4851 106.923C39.0465 97.1141 45.247 84.7795 57.334 79.3738C69.4202 73.9681 82.8162 77.5378 87.2539 87.3461" fill="#E36B5F"/>
<path fill-rule="evenodd" clip-rule="evenodd" d="M86.5699 87.6531C90.8701 97.1555 84.8633 109.104 73.1541 114.341C61.4457 119.578 48.4682 116.12 44.1688 106.617C39.8686 97.1142 45.8763 85.1656 57.5847 79.9292C69.2939 74.6928 82.2706 78.1499 86.5699 87.6531" fill="#E46C5E"/>
<path fill-rule="evenodd" clip-rule="evenodd" d="M85.8864 87.9573C90.0482 97.1545 84.2351 108.717 72.9036 113.785C61.5722 118.853 49.0139 115.506 44.8529 106.31C40.6919 97.1141 46.5042 85.5515 57.8365 80.4827C69.1671 75.4148 81.7262 78.7619 85.8864 87.9573" fill="#E46D5E"/>
<path fill-rule="evenodd" clip-rule="evenodd" d="M85.2025 88.2655C89.2244 97.155 83.6058 108.332 72.6521 113.231C61.6984 118.131 49.5595 114.895 45.5368 106.006C41.515 97.1163 47.1336 85.9387 58.0873 81.0401C69.0409 76.1407 81.1807 79.3752 85.2025 88.2655" fill="#E46D5E"/>
<path fill-rule="evenodd" clip-rule="evenodd" d="M84.5186 88.5703C88.4021 97.1538 82.9771 107.945 72.4004 112.676C61.8254 117.406 50.1032 114.282 46.2205 105.699C42.337 97.1169 47.7629 86.3243 58.3387 81.5942C68.9137 76.8641 80.636 79.9877 84.5186 88.5703" fill="#E46E5F"/>
<path fill-rule="evenodd" clip-rule="evenodd" d="M83.8347 88.8762C87.5799 97.1528 82.3477 107.559 72.1497 112.121C61.9516 116.682 50.6487 113.669 46.9044 105.394C43.1592 97.1176 48.3914 86.7101 58.5894 82.1493C68.7875 77.5877 80.0904 80.6004 83.8347 88.8762" fill="#E46F5F"/>
<path fill-rule="evenodd" clip-rule="evenodd" d="M83.1509 89.1816C86.7569 97.1523 81.7193 107.173 71.899 111.565C62.0788 115.958 51.1943 113.057 47.5883 105.087C43.9823 97.117 49.0208 87.0964 58.8402 82.7032C68.6605 78.3117 79.545 81.2119 83.1509 89.1816" fill="#E4705F"/>
<path fill-rule="evenodd" clip-rule="evenodd" d="M82.4672 89.4875C85.9349 97.1513 81.09 106.787 71.6476 111.011C62.2051 115.234 51.7399 112.444 48.2723 104.782C44.8055 97.1177 49.6495 87.4822 59.0919 83.2583C68.5344 79.0353 78.9996 81.8246 82.4672 89.4875" fill="#E4705F"/>
<path fill-rule="evenodd" clip-rule="evenodd" d="M81.7834 89.795C85.1127 97.1519 80.4624 106.402 71.3969 110.456C62.3322 114.511 52.2846 111.834 48.9561 104.476C45.6276 97.1201 50.278 87.8696 59.3426 83.8151C68.4073 79.7606 78.4549 82.4381 81.7834 89.795" fill="#E4715F"/>
<path fill-rule="evenodd" clip-rule="evenodd" d="M81.0997 90.1004C84.2889 97.1504 79.8331 106.015 71.1454 109.901C62.4586 113.786 52.8302 111.22 49.6401 104.17C46.4508 97.1203 50.9066 88.2549 59.5944 84.3697C68.2812 80.4837 77.9104 83.0503 81.0997 90.1004" fill="#E4715F"/>
<path fill-rule="evenodd" clip-rule="evenodd" d="M80.4157 90.4052C83.4667 97.1492 79.2045 105.629 70.8946 109.345C62.5847 113.062 53.3757 110.608 50.3238 103.864C47.2729 97.1208 51.5359 88.6405 59.845 84.9238C68.1549 81.2079 77.3648 83.6611 80.4157 90.4052" fill="#E5725F"/>
<path fill-rule="evenodd" clip-rule="evenodd" d="M79.7319 90.7114C82.6445 97.1485 78.5751 105.242 70.643 108.79C62.7109 112.338 53.9203 109.995 51.0077 103.557C48.0951 97.1202 52.1644 89.0266 60.0965 85.4784C68.0287 81.931 76.8192 84.2733 79.7319 90.7114" fill="#E5725F"/>
<path fill-rule="evenodd" clip-rule="evenodd" d="M79.0481 91.017C81.8215 97.1482 77.9466 104.857 70.3923 108.235C62.838 111.614 54.4659 109.382 51.6916 103.252C48.9181 97.1215 52.7939 89.4131 60.3473 86.0342C67.9016 82.6561 76.2738 84.8867 79.0481 91.017" fill="#E5735F"/>
<path fill-rule="evenodd" clip-rule="evenodd" d="M78.364 91.3234C80.9991 97.1477 77.3179 104.47 70.1405 107.681C62.964 110.89 55.0103 108.771 52.3752 102.946C49.7409 97.1228 53.4213 89.7994 60.5986 86.5899C67.7751 83.3794 75.7289 85.4991 78.364 91.3234" fill="#E5745F"/>
<path fill-rule="evenodd" clip-rule="evenodd" d="M77.68 91.6292C80.1768 97.1466 76.6884 104.085 69.8897 107.125C63.091 110.165 55.5557 108.157 53.0589 102.641C50.563 97.1234 54.0505 90.1843 60.8492 87.144C67.648 84.1038 75.1832 86.1117 77.68 91.6292" fill="#E57460"/>
<path fill-rule="evenodd" clip-rule="evenodd" d="M76.9963 91.9339C79.3531 97.1454 76.06 103.699 69.6391 106.57C63.2174 109.442 56.1014 107.546 53.7429 102.334C51.3862 97.1239 54.6792 90.5706 61.1001 87.6989C67.5219 84.8271 74.6379 86.7233 76.9963 91.9339" fill="#E57560"/>
<path fill-rule="evenodd" clip-rule="evenodd" d="M76.3124 92.2404C78.5308 97.145 75.4305 103.312 69.3874 106.015C63.3443 108.718 56.6468 106.933 54.4267 102.028C52.2083 97.1235 55.3085 90.9562 61.3516 88.2529C67.3947 85.5505 74.0922 87.3358 76.3124 92.2404" fill="#E57660"/>
<path fill-rule="evenodd" clip-rule="evenodd" d="M75.6285 92.5468C77.7086 97.1454 74.802 102.928 69.1367 105.461C63.4706 107.995 57.1914 106.322 55.1105 101.723C53.0304 97.1256 55.937 91.3434 61.6023 88.8103C67.2685 86.2755 73.5485 87.949 75.6285 92.5468" fill="#E57660"/>
<path fill-rule="evenodd" clip-rule="evenodd" d="M74.9446 92.8532C76.8864 97.1441 74.1735 102.54 68.8851 104.905C63.5976 107.271 57.737 105.709 55.7943 101.417C53.8526 97.1252 56.5655 91.7289 61.8539 89.3643C67.1414 86.9988 73.0029 88.5615 74.9446 92.8532" fill="#E57760"/>
<path fill-rule="evenodd" clip-rule="evenodd" d="M74.261 93.1584C76.0636 97.1433 73.5452 102.154 68.6346 104.351C63.7241 106.546 58.2818 105.096 56.4784 101.111C54.6767 97.1261 57.1951 92.1149 62.1048 89.9196C67.0153 87.7234 72.4576 89.1743 74.261 93.1584" fill="#E67861"/>
<path fill-rule="evenodd" clip-rule="evenodd" d="M73.5771 93.4639C75.2414 97.1419 72.9158 101.768 68.383 103.795C63.8511 105.823 58.8273 104.483 57.1622 100.805C55.4989 97.1264 57.8236 92.5012 62.3563 90.4735C66.8882 88.4467 71.9121 89.785 73.5771 93.4639" fill="#E67961"/>
<path fill-rule="evenodd" clip-rule="evenodd" d="M72.8932 93.7696C74.4182 97.1416 72.2872 101.382 68.1322 103.239C63.9773 105.098 59.3719 103.87 57.846 100.498C56.3209 97.1261 58.4529 92.8868 62.607 91.0293C66.7619 89.171 71.3673 90.3976 72.8932 93.7696" fill="#E67960"/>
<path fill-rule="evenodd" clip-rule="evenodd" d="M72.2096 94.0768C73.5954 97.1419 71.658 100.996 67.8808 102.685C64.1046 104.375 59.9176 103.259 58.5309 100.194C57.1442 97.1282 59.0816 93.2739 62.8588 91.5849C66.6359 89.895 70.822 91.0107 72.2096 94.0768" fill="#E67A60"/>
<path fill-rule="evenodd" clip-rule="evenodd" d="M71.5248 94.3819C72.7732 97.1411 71.0295 100.61 67.6301 102.131C64.2308 103.65 60.4631 102.646 59.2156 99.8882C57.9663 97.129 59.711 93.6599 63.1095 92.1402C66.5088 90.6196 70.2765 91.6236 71.5248 94.3819" fill="#E67B60"/>
<path fill-rule="evenodd" clip-rule="evenodd" d="M70.8406 94.6881C71.9507 97.1395 70.4006 100.224 67.379 101.575C64.3575 102.927 61.0082 102.034 59.899 99.5815C58.7881 97.1292 60.3382 94.0451 63.3598 92.6939C66.3822 91.3427 69.7314 92.2349 70.8406 94.6881" fill="#E67B60"/>
<path fill-rule="evenodd" clip-rule="evenodd" d="M70.1568 94.9927C71.1277 97.139 69.7712 99.8372 67.1275 101.02C64.4828 102.202 61.5538 101.421 60.5829 99.275C59.6112 97.1287 60.9677 94.4314 63.6114 93.2487C66.256 92.0668 69.1859 92.8473 70.1568 94.9927" fill="#E67C60"/>
<path fill-rule="evenodd" clip-rule="evenodd" d="M69.4731 95.3005C70.3056 97.14 69.1428 99.453 66.8769 100.466C64.6101 101.48 62.0977 100.81 61.2669 98.9708C60.4344 97.1314 61.5963 94.8192 63.8623 93.8058C66.1299 92.7924 68.6414 93.4619 69.4731 95.3005" fill="#E67D61"/>
<path fill-rule="evenodd" clip-rule="evenodd" d="M68.7892 95.6061C69.4825 97.1387 68.5134 99.0658 66.6252 99.9107C64.7362 100.755 62.6432 100.198 61.9507 98.6652C61.2564 97.1318 62.2256 95.2047 64.1137 94.3606C66.0028 93.5156 68.0958 94.0735 68.7892 95.6061" fill="#E77D61"/>
<path fill-rule="evenodd" clip-rule="evenodd" d="M68.1054 95.9104C68.6596 97.137 67.885 98.679 66.3746 99.3546C64.8634 100.03 63.1888 99.5841 62.6346 98.3584C62.0796 97.1318 62.8542 95.5898 64.3654 94.9142C65.8767 94.2386 67.5504 94.6855 68.1054 95.9104" fill="#E77E61"/>
<path fill-rule="evenodd" clip-rule="evenodd" d="M67.4216 96.2169C67.8374 97.1358 67.2564 98.2927 66.123 98.7999C64.9896 99.3061 63.7343 98.9718 63.3185 98.0521C62.9018 97.1323 63.4828 95.9762 64.617 95.4691C65.7496 94.9628 67.0049 95.2972 67.4216 96.2169" fill="#E77F61"/>
<path fill-rule="evenodd" clip-rule="evenodd" d="M66.7376 96.5234C67.0151 97.1371 66.6278 97.9081 65.8722 98.2459C65.1166 98.5837 64.2789 98.3602 64.0022 97.7474C63.7239 97.1336 64.112 96.3635 64.8676 96.0248C65.6232 95.6879 66.4601 95.9105 66.7376 96.5234" fill="#E77F61"/>
<path fill-rule="evenodd" clip-rule="evenodd" d="M66.0539 96.8298C66.1922 97.1358 65.9986 97.5209 65.6208 97.6902C65.243 97.8596 64.8245 97.7478 64.6862 97.441C64.547 97.1341 64.7407 96.749 65.1194 96.5806C65.4963 96.4104 65.9156 96.5221 66.0539 96.8298" fill="#E78061"/>
</g>
<path d="M41.0492 19.9934C33.9555 24.0738 28.2236 33.972 28.2432 42.1034C28.253 46.1251 29.6835 48.9657 31.9861 50.303L35.5526 52.3725C33.25 51.0351 31.8195 48.2043 31.8097 44.1826C31.7901 36.0512 37.522 26.153 44.6157 22.0727C48.1822 20.0227 51.4156 19.8275 53.7573 21.1844L50.1908 19.1149C47.8491 17.7483 44.6157 17.9435 41.0492 19.9934Z" fill="url(#paint0_linear_52_7175)"/>
<g opacity="0.3">
<path opacity="0.3" d="M32.1425 47.2087L28.625 45.3345C28.7622 45.9104 28.9385 46.4473 29.1541 46.9354L32.6422 48.79C32.4364 48.302 32.2699 47.7748 32.1425 47.2087Z" fill="white"/>
<path opacity="0.3" d="M39.4019 26.3415L35.7375 24.3892C35.4729 24.682 35.1986 24.9748 34.9438 25.2872L38.6083 27.2395C38.8728 26.9271 39.1374 26.6343 39.4019 26.3415Z" fill="white"/>
<path opacity="0.3" d="M38.0872 27.882L34.4228 25.9297C34.1778 26.2421 33.9329 26.5544 33.7075 26.8668L37.3622 28.8191C37.5973 28.4969 37.8423 28.1944 38.0872 27.882Z" fill="white"/>
<path opacity="0.3" d="M46.5347 21.1476L42.7919 19.1465C42.3608 19.3222 41.9297 19.537 41.4888 19.7712L45.212 21.7626C45.6529 21.5283 46.0938 21.3233 46.5347 21.1476Z" fill="white"/>
<path opacity="0.3" d="M36.8951 29.4928L33.2405 27.5503C33.0151 27.8724 32.8093 28.1946 32.5938 28.5264L36.2386 30.469C36.4542 30.1469 36.6697 29.815 36.8951 29.4928Z" fill="white"/>
<path opacity="0.3" d="M49.3362 20.3874L45.5248 18.3569C44.9663 18.435 44.3882 18.5619 43.8003 18.7571L47.5726 20.768C48.18 20.5825 48.7679 20.4557 49.3362 20.3874Z" fill="white"/>
<path opacity="0.3" d="M42.5086 23.4899L38.8148 21.5181C38.4816 21.7719 38.1583 22.0452 37.8447 22.3185L41.5288 24.2806C41.8423 24.017 42.1755 23.7437 42.5086 23.4899Z" fill="white"/>
<path opacity="0.3" d="M40.8603 24.8678L37.1762 22.9058C36.8823 23.1791 36.5981 23.4719 36.314 23.7648L39.9882 25.7269C40.2822 25.434 40.5663 25.1412 40.8603 24.8678Z" fill="white"/>
<path opacity="0.3" d="M44.3592 22.2296L40.6458 20.248C40.2735 20.4726 39.9011 20.7166 39.5288 20.9802L43.2227 22.952C43.595 22.6885 43.9771 22.4541 44.3592 22.2296Z" fill="white"/>
<path opacity="0.3" d="M32.179 40.4743L28.5832 38.5513C28.5048 38.9613 28.4557 39.3712 28.4067 39.7812L31.9928 41.6945C32.0418 41.2942 32.1006 40.894 32.179 40.4743Z" fill="white"/>
<path opacity="0.3" d="M34.836 32.9021L31.2009 30.9595C31.0246 31.3109 30.858 31.6623 30.6914 32.0137L34.3265 33.9465C34.4931 33.6049 34.6596 33.2535 34.836 32.9021Z" fill="white"/>
<path opacity="0.3" d="M35.8138 31.1706L32.1689 29.228C31.973 29.5599 31.777 29.9016 31.5908 30.2432L35.2259 32.1857C35.4121 31.8441 35.6081 31.5025 35.8138 31.1706Z" fill="white"/>
<path opacity="0.3" d="M33.2482 50.0505L29.8188 48.2251C30.4067 49.1134 31.1318 49.8065 31.9842 50.3043L35.051 52.0809L35.0706 52.0419C34.3652 51.5245 33.7479 50.8705 33.2482 50.0505Z" fill="white"/>
<path opacity="0.3" d="M52.8242 20.7372L52.8634 20.6591L50.1885 19.1071C49.2773 18.5799 48.2289 18.2969 47.0728 18.2578L50.992 20.3467C51.6386 20.3955 52.2559 20.5225 52.8242 20.7372Z" fill="white"/>
<path opacity="0.3" d="M31.8487 44.7995L28.292 42.9058C28.3214 43.3938 28.3606 43.8526 28.4292 44.3017L31.9761 46.1856C31.9075 45.7464 31.8683 45.2778 31.8487 44.7995Z" fill="white"/>
<path opacity="0.3" d="M33.9846 34.6955L30.3594 32.7627C30.2026 33.1239 30.0556 33.485 29.9185 33.856L33.5437 35.7888C33.6809 35.4178 33.818 35.0566 33.9846 34.6955Z" fill="white"/>
<path opacity="0.3" d="M31.8865 42.5729L28.3102 40.6597C28.2808 41.0989 28.2612 41.5285 28.2612 41.958L31.8375 43.8615C31.8277 43.432 31.8473 43.0025 31.8865 42.5729Z" fill="white"/>
<path opacity="0.3" d="M32.6393 38.4723L29.0337 36.5493C28.9259 36.9398 28.8279 37.3303 28.7397 37.7207L32.3356 39.6437C32.4238 39.2532 32.5316 38.8628 32.6393 38.4723Z" fill="white"/>
<path opacity="0.3" d="M33.25 36.5505L29.6345 34.6274C29.5071 34.9984 29.37 35.3693 29.2524 35.75L32.8679 37.6828C32.9855 37.3021 33.1128 36.9214 33.25 36.5505Z" fill="white"/>
</g>
<path d="M44.6147 22.0632C37.5209 26.1436 31.789 36.0418 31.8086 44.1731C31.8282 52.2752 37.6091 55.5551 44.6931 51.4748C51.7868 47.3944 57.5186 37.4962 57.499 29.3942C57.4892 21.2628 51.7084 17.9829 44.6147 22.0632Z" fill="url(#paint1_linear_52_7175)"/>
<g opacity="0.4">
<path opacity="0.4" d="M53.7271 21.1837C52.7767 20.6371 51.6793 20.3442 50.4643 20.3345C44.5757 26.2012 38.6773 32.0776 32.7887 37.9443C32.2792 39.633 31.9657 41.3218 31.8677 42.9617L53.7271 21.1837Z" fill="white"/>
<path opacity="0.4" d="M34.5324 51.5519C42.1846 43.9281 49.8271 36.3142 57.4794 28.6904C57.4108 27.2945 57.1756 26.0547 56.7837 24.9907L32.71 48.9748C33.1607 50.0291 33.7877 50.8784 34.5324 51.5519Z" fill="white"/>
</g>
<path d="M95.6653 1.82957C90.9112 4.56408 87.0699 11.1976 87.083 16.647C87.0896 19.3423 88.0483 21.2459 89.5914 22.1422L91.9816 23.5291C90.4385 22.6328 89.4798 20.7357 89.4732 18.0404C89.4601 12.591 93.3014 5.95751 98.0554 3.223C100.446 1.8492 102.612 1.71838 104.182 2.6277L101.792 1.24082C100.222 0.324954 98.0554 0.455768 95.6653 1.82957Z" fill="url(#paint2_linear_52_7175)"/>
<g opacity="0.3">
<path opacity="0.3" d="M89.6962 20.0671L87.3389 18.811C87.4308 19.197 87.549 19.5568 87.6934 19.8839L90.0311 21.1269C89.8932 20.7998 89.7816 20.4465 89.6962 20.0671Z" fill="white"/>
<path opacity="0.3" d="M94.5614 6.08426L92.1056 4.77588C91.9283 4.97214 91.7445 5.16838 91.5737 5.37772L94.0295 6.6861C94.2068 6.47676 94.3841 6.28052 94.5614 6.08426Z" fill="white"/>
<path opacity="0.3" d="M93.6803 7.11551L91.2244 5.80713C91.0603 6.01647 90.8961 6.22579 90.7451 6.43513L93.1944 7.74351C93.3519 7.52762 93.5161 7.32485 93.6803 7.11551Z" fill="white"/>
<path opacity="0.3" d="M99.3416 2.60231L96.8333 1.26123C96.5444 1.37898 96.2554 1.52292 95.96 1.67992L98.4552 3.01446C98.7507 2.85745 99.0461 2.72007 99.3416 2.60231Z" fill="white"/>
<path opacity="0.3" d="M92.8812 8.19539L90.4319 6.89355C90.2809 7.10944 90.143 7.32532 89.9985 7.54774L92.4412 8.84958C92.5857 8.63369 92.7302 8.41127 92.8812 8.19539Z" fill="white"/>
<path opacity="0.3" d="M101.219 2.09413L98.6645 0.733398C98.2902 0.785734 97.9028 0.870761 97.5088 1.0016L100.037 2.34923C100.444 2.22493 100.838 2.13992 101.219 2.09413Z" fill="white"/>
<path opacity="0.3" d="M96.6437 4.17255L94.1682 2.85107C93.9449 3.02116 93.7282 3.20434 93.5181 3.38752L95.987 4.70244C96.1971 4.52581 96.4204 4.34264 96.6437 4.17255Z" fill="white"/>
<path opacity="0.3" d="M95.539 5.09618L93.07 3.78125C92.873 3.96442 92.6826 4.16068 92.4922 4.35694L94.9546 5.67187C95.1516 5.47561 95.342 5.27935 95.539 5.09618Z" fill="white"/>
<path opacity="0.3" d="M97.8837 3.32896L95.3951 2.00098C95.1455 2.15144 94.896 2.31499 94.6465 2.49162L97.122 3.8131C97.3715 3.63647 97.6276 3.47943 97.8837 3.32896Z" fill="white"/>
<path opacity="0.3" d="M89.7209 15.5544L87.3111 14.2656C87.2586 14.5404 87.2257 14.8152 87.1929 15.0899L89.5962 16.3721C89.629 16.1039 89.6684 15.8357 89.7209 15.5544Z" fill="white"/>
<path opacity="0.3" d="M91.5017 10.4786L89.0656 9.17676C88.9474 9.41227 88.8357 9.64779 88.7241 9.88329L91.1603 11.1786C91.2719 10.9496 91.3835 10.7141 91.5017 10.4786Z" fill="white"/>
<path opacity="0.3" d="M92.1568 9.31843L89.7141 8.0166C89.5828 8.23903 89.4514 8.46798 89.3267 8.69695L91.7628 9.99878C91.8875 9.76981 92.0189 9.54086 92.1568 9.31843Z" fill="white"/>
<path opacity="0.3" d="M90.4374 21.9714L88.1392 20.748C88.5331 21.3434 89.0191 21.8078 89.5903 22.1415L91.6456 23.3321L91.6588 23.306C91.186 22.9592 90.7723 22.5209 90.4374 21.9714Z" fill="white"/>
<path opacity="0.3" d="M103.557 2.32764L103.583 2.2753L101.79 1.23516C101.18 0.881895 100.477 0.692183 99.7021 0.666016L102.329 2.06595C102.762 2.09866 103.176 2.18372 103.557 2.32764Z" fill="white"/>
<path opacity="0.3" d="M89.4993 18.4537L87.1157 17.1846C87.1354 17.5117 87.1617 17.8191 87.2077 18.1201L89.5847 19.3826C89.5387 19.0883 89.5124 18.7743 89.4993 18.4537Z" fill="white"/>
<path opacity="0.3" d="M90.9311 11.6815L88.5015 10.3862C88.3965 10.6283 88.298 10.8703 88.2061 11.1189L90.6356 12.4142C90.7275 12.1656 90.8194 11.9236 90.9311 11.6815Z" fill="white"/>
<path opacity="0.3" d="M89.5248 16.9629L87.128 15.6807C87.1083 15.975 87.0952 16.2629 87.0952 16.5507L89.4919 17.8264C89.4853 17.5386 89.4985 17.2507 89.5248 16.9629Z" fill="white"/>
<path opacity="0.3" d="M90.0294 14.2131L87.613 12.9243C87.5408 13.186 87.4751 13.4477 87.416 13.7094L89.8259 14.9981C89.885 14.7364 89.9572 14.4747 90.0294 14.2131Z" fill="white"/>
<path opacity="0.3" d="M90.4388 12.924L88.0158 11.6353C87.9305 11.8838 87.8386 12.1325 87.7598 12.3876L90.1828 13.6829C90.2616 13.4277 90.3469 13.1726 90.4388 12.924Z" fill="white"/>
</g>
<path d="M98.0544 3.21806C93.3004 5.95257 89.4591 12.5861 89.4722 18.0355C89.4853 23.4653 93.3595 25.6633 98.107 22.9288C102.861 20.1943 106.702 13.5608 106.689 8.13103C106.683 2.68163 102.808 0.483541 98.0544 3.21806Z" fill="url(#paint3_linear_52_7175)"/>
<g opacity="0.4">
<path opacity="0.4" d="M104.162 2.62822C103.525 2.26188 102.789 2.06562 101.975 2.05908C98.0288 5.99077 94.0758 9.92898 90.1294 13.8607C89.788 14.9924 89.5779 16.1242 89.5122 17.2232L104.162 2.62822Z" fill="white"/>
<path opacity="0.4" d="M91.298 22.9812C96.4263 17.872 101.548 12.7693 106.676 7.66007C106.63 6.72458 106.473 5.89373 106.21 5.18066L90.0767 21.2541C90.3787 21.9607 90.7989 22.5298 91.298 22.9812Z" fill="white"/>
</g>
<path fill-rule="evenodd" clip-rule="evenodd" d="M40.032 180.836L40.147 180.769L40.1401 180.762L40.032 180.836" fill="#DF637B"/>
<path fill-rule="evenodd" clip-rule="evenodd" d="M14.271 81.5565L35.1781 97.3843C38.0552 95.5337 38.676 91.5952 36.4818 88.9788C32.1306 83.7931 24.2002 77.1866 14.271 81.5565" fill="#DF4B84"/>
<path fill-rule="evenodd" clip-rule="evenodd" d="M91.3646 106.946C74.884 97.9844 58.0835 111.295 58.0835 111.295C76.1376 114.885 82.7945 141.731 82.7945 141.731C103.284 134.608 101.933 112.692 91.3646 106.946" fill="#DF4B84"/>
<path fill-rule="evenodd" clip-rule="evenodd" d="M55.5049 150.481C56.1758 149.783 56.5752 148.693 56.5752 147.263C56.5752 143.608 53.9937 139.163 50.8105 137.335C47.6256 135.507 45.0449 136.988 45.0449 140.644C45.0449 140.723 45.0527 140.805 45.0553 140.884C49.2189 143.225 52.7618 146.55 55.5049 150.481" fill="#0E1025"/>
<path fill-rule="evenodd" clip-rule="evenodd" d="M27.4913 132.308C27.6089 131.35 26.5905 124.512 19.9258 124.676C16.2264 124.767 12.8617 128.742 13.3423 130.849C18.0869 130.243 22.9274 130.795 27.4913 132.308" fill="#0E1025"/>
<path fill-rule="evenodd" clip-rule="evenodd" d="M12.8366 82.7446C6.57478 90.4849 17.7238 106.198 17.7238 106.198C21.9713 97.3596 35.1779 97.3845 35.1779 97.3845C35.1779 97.3845 19.0993 75.0035 12.8366 82.7446" fill="#931E53"/>
<path fill-rule="evenodd" clip-rule="evenodd" d="M58.0835 111.294C58.0835 111.294 71.0593 118.879 82.7945 141.731C82.7945 141.731 95.3381 121.137 85.6466 110.436C77.986 101.977 58.0835 111.294 58.0835 111.294" fill="#931E53"/>
<path fill-rule="evenodd" clip-rule="evenodd" d="M25.5831 142.2C19.5901 140.67 11.403 143.562 3.04638 149.044C-5.57476 154.7 33.5567 176.109 33.5567 176.109C33.5567 176.109 40.0321 169.748 40.0321 158.986C40.0321 151.701 35.8088 144.811 25.5831 142.2" fill="#931E53"/>
<path fill-rule="evenodd" clip-rule="evenodd" d="M16.0353 149.86C6.29894 145.801 -0.842989 148.369 0.0803349 155.598C1.00452 162.826 9.64728 171.977 19.3819 176.036C29.1183 180.097 36.262 177.528 35.3369 170.3C34.4128 163.072 25.7717 153.921 16.0353 149.86" fill="#DF4B84"/>
<path fill-rule="evenodd" clip-rule="evenodd" d="M9.4536 153.826C8.0081 153.224 7.13146 155.044 7.49543 157.894C7.86026 160.743 9.32738 163.542 10.7729 164.144C12.2184 164.748 13.0959 162.926 12.7311 160.078C12.3671 157.227 10.9 154.429 9.4536 153.826" fill="#0E1025"/>
<path fill-rule="evenodd" clip-rule="evenodd" d="M22.5539 161.102C21.1084 160.499 20.2326 162.32 20.5966 165.17C20.9605 168.019 22.4285 170.817 23.874 171.42C25.3186 172.023 26.1962 170.202 25.8313 167.353C25.4665 164.503 24.0002 161.704 22.5539 161.102" fill="#0E1025"/>
<path fill-rule="evenodd" clip-rule="evenodd" d="M90.9916 69.7761C69.207 69.5277 52.6555 83.8719 51.9613 84.4831C50.5235 85.7466 50.3895 87.929 51.6604 89.3593C52.2734 90.0504 53.1024 90.4389 53.9575 90.5146C54.8756 90.5971 55.8231 90.3186 56.5692 89.6662C56.7205 89.5338 71.8672 76.4764 90.912 76.693C92.8322 76.7144 94.4082 75.1844 94.4307 73.2737C94.4523 71.3646 92.9074 69.7985 90.9916 69.7761" fill="#931E53"/>
<path fill-rule="evenodd" clip-rule="evenodd" d="M90.8046 71.2824C69.7609 71.0434 53.7722 84.8985 53.1013 85.489C51.7129 86.7104 51.5832 88.8181 52.8109 90.2002C53.4031 90.8664 54.2045 91.2429 55.0293 91.3168C55.9163 91.3959 56.8327 91.1268 57.5528 90.4959C57.6989 90.3678 72.3303 77.7548 90.7268 77.9654C92.5821 77.986 94.1045 76.5076 94.1261 74.6621C94.1477 72.8167 92.6547 71.3038 90.8046 71.2824" fill="#0E1025"/>
<path d="M72.5259 49.7938C66.2484 53.4046 61.1761 62.1639 61.1934 69.3596C61.2021 72.9186 62.468 75.4324 64.5056 76.6158L67.6617 78.4471C65.6241 77.2637 64.3582 74.7586 64.3495 71.1996C64.3322 64.0039 69.4045 55.2446 75.682 51.6337C78.8382 49.8197 81.6995 49.647 83.7718 50.8477L80.6156 49.0164C78.5434 47.807 75.682 47.9797 72.5259 49.7938Z" fill="url(#paint4_linear_52_7175)"/>
<g opacity="0.3">
<path opacity="0.3" d="M64.644 73.8724L61.5312 72.2139C61.6526 72.7235 61.8087 73.1987 61.9994 73.6306L65.0862 75.2718C64.9041 74.8399 64.7568 74.3734 64.644 73.8724Z" fill="white"/>
<path opacity="0.3" d="M71.0682 55.4064L67.8254 53.6787C67.5913 53.9379 67.3485 54.197 67.123 54.4734L70.3659 56.2011C70.6 55.9247 70.8341 55.6655 71.0682 55.4064Z" fill="white"/>
<path opacity="0.3" d="M69.905 56.7731L66.6622 55.0454C66.4455 55.3218 66.2287 55.5982 66.0293 55.8747L69.2634 57.6023C69.4715 57.3173 69.6883 57.0495 69.905 56.7731Z" fill="white"/>
<path opacity="0.3" d="M77.3799 50.8114L74.0678 49.0405C73.6863 49.196 73.3047 49.3861 72.9146 49.5934L76.2094 51.3556C76.5996 51.1483 76.9897 50.9669 77.3799 50.8114Z" fill="white"/>
<path opacity="0.3" d="M68.8499 58.198L65.6157 56.479C65.4163 56.7641 65.2342 57.0491 65.0435 57.3428L68.269 59.0619C68.4597 58.7768 68.6505 58.4831 68.8499 58.198Z" fill="white"/>
<path opacity="0.3" d="M79.8594 50.142L76.4865 48.3452C75.9923 48.4143 75.4807 48.5266 74.9604 48.6994L78.2987 50.4789C78.8363 50.3147 79.3565 50.2025 79.8594 50.142Z" fill="white"/>
<path opacity="0.3" d="M73.8176 52.8841L70.5489 51.1392C70.2541 51.3638 69.9679 51.6056 69.6904 51.8475L72.9506 53.5838C73.228 53.3506 73.5228 53.1087 73.8176 52.8841Z" fill="white"/>
<path opacity="0.3" d="M72.3586 54.103L69.0985 52.3667C68.8383 52.6086 68.5869 52.8677 68.3354 53.1269L71.5869 54.8632C71.847 54.604 72.0985 54.3449 72.3586 54.103Z" fill="white"/>
<path opacity="0.3" d="M75.4553 51.7736L72.1691 50.02C71.8396 50.2187 71.5101 50.4347 71.1807 50.6679L74.4495 52.4129C74.779 52.1796 75.1171 51.9723 75.4553 51.7736Z" fill="white"/>
<path opacity="0.3" d="M64.6766 67.9171L61.4945 66.2153C61.4251 66.5781 61.3817 66.941 61.3384 67.3038L64.5119 68.9969C64.5552 68.6427 64.6072 68.2885 64.6766 67.9171Z" fill="white"/>
<path opacity="0.3" d="M67.0281 61.2093L63.8112 59.4902C63.6552 59.8012 63.5078 60.1122 63.3604 60.4232L66.5772 62.1336C66.7246 61.8312 66.872 61.5203 67.0281 61.2093Z" fill="white"/>
<path opacity="0.3" d="M67.8933 59.6795L64.6678 57.9604C64.4944 58.2542 64.321 58.5565 64.1562 58.8588L67.3731 60.5778C67.5378 60.2755 67.7113 59.9732 67.8933 59.6795Z" fill="white"/>
<path opacity="0.3" d="M65.6226 76.3873L62.5879 74.772C63.1081 75.5581 63.7498 76.1714 64.5041 76.6119L67.218 78.1841L67.2354 78.1496C66.6111 77.6918 66.0648 77.113 65.6226 76.3873Z" fill="white"/>
<path opacity="0.3" d="M82.9461 50.4485L82.9808 50.3794L80.6137 49.0059C79.8073 48.5395 78.8796 48.2889 77.8564 48.2544L81.3247 50.103C81.897 50.1462 82.4432 50.2585 82.9461 50.4485Z" fill="white"/>
<path opacity="0.3" d="M64.3838 71.7432L61.2363 70.0674C61.2623 70.4993 61.297 70.9053 61.3577 71.3027L64.4965 72.9699C64.4358 72.5811 64.4011 72.1665 64.3838 71.7432Z" fill="white"/>
<path opacity="0.3" d="M66.2746 62.7973L63.0665 61.0869C62.9277 61.4065 62.7977 61.7261 62.6763 62.0544L65.8844 63.7648C66.0058 63.4365 66.1272 63.1169 66.2746 62.7973Z" fill="white"/>
<path opacity="0.3" d="M64.4176 69.7708L61.2528 68.0776C61.2268 68.4664 61.2095 68.8465 61.2095 69.2266L64.3742 70.911C64.3655 70.531 64.3829 70.1509 64.4176 69.7708Z" fill="white"/>
<path opacity="0.3" d="M65.0837 66.1451L61.8929 64.4434C61.7975 64.7889 61.7108 65.1344 61.6328 65.48L64.8149 67.1817C64.8929 66.8362 64.9883 66.4906 65.0837 66.1451Z" fill="white"/>
<path opacity="0.3" d="M65.6245 64.4396L62.425 62.7378C62.3123 63.066 62.191 63.3943 62.0869 63.7312L65.2864 65.4416C65.3904 65.1047 65.5031 64.7678 65.6245 64.4396Z" fill="white"/>
</g>
<path d="M75.6812 51.628C69.4037 55.2388 64.3313 63.9981 64.3487 71.1939C64.366 78.3637 69.4817 81.2661 75.7506 77.6553C82.0281 74.0445 87.1004 65.2852 87.083 58.1154C87.0744 50.9197 81.9587 48.0172 75.6812 51.628Z" fill="url(#paint5_linear_52_7175)"/>
<g opacity="0.4">
<path opacity="0.4" d="M83.745 50.8492C82.904 50.3654 81.9329 50.1063 80.8577 50.0977C75.6467 55.2893 70.427 60.4896 65.2159 65.6812C64.765 67.1756 64.4876 68.6701 64.4009 70.1213L83.745 50.8492Z" fill="white"/>
<path opacity="0.4" d="M66.7592 77.7271C73.531 70.9806 80.2941 64.2427 87.0659 57.4961C87.0052 56.2608 86.797 55.1637 86.4502 54.2222L65.1465 75.4466C65.5453 76.3795 66.1002 77.1311 66.7592 77.7271Z" fill="white"/>
</g>
<mask id="mask2_52_7175" style="mask-type:alpha" maskUnits="userSpaceOnUse" x="63" y="75" width="1" height="2">
<path fill-rule="evenodd" clip-rule="evenodd" d="M63.3721 76.1624C63.3419 76.0507 63.3142 75.9372 63.2883 75.8212L63.2892 75.822C63.3151 75.9372 63.3428 76.0507 63.3721 76.1624V76.1624Z" fill="white"/>
</mask>
<g mask="url(#mask2_52_7175)">
<path fill-rule="evenodd" clip-rule="evenodd" d="M63.2883 76.1624H63.3721V75.8212H63.2883V76.1624Z" fill="#E98B83"/>
</g>
<path fill-rule="evenodd" clip-rule="evenodd" d="M63.5552 76.7547C63.4878 76.5639 63.4264 76.367 63.3719 76.1625C63.4264 76.3662 63.4878 76.5639 63.5561 76.7547C63.5552 76.7547 63.5561 76.7547 63.5552 76.7547" fill="#E98C83"/>
<path fill-rule="evenodd" clip-rule="evenodd" d="M63.5737 76.8029C63.5676 76.7866 63.5616 76.7702 63.5555 76.7539C63.5564 76.7539 63.5555 76.7539 63.5564 76.7539C63.5616 76.7702 63.5676 76.7866 63.5737 76.8029" fill="#E98D83"/>
<path fill-rule="evenodd" clip-rule="evenodd" d="M63.6495 77.0045V77.0036C63.6227 76.9383 63.5976 76.8712 63.5734 76.8033C63.5985 76.8712 63.6236 76.9383 63.6495 77.0045" fill="#B85B81"/>
<path fill-rule="evenodd" clip-rule="evenodd" d="M65.3983 59.4101V59.4093C65.4044 59.4024 65.4104 59.3947 65.4174 59.3869C65.4113 59.3947 65.4044 59.4024 65.3983 59.4101" fill="#FFFFFE"/>
<path fill-rule="evenodd" clip-rule="evenodd" d="M63.6624 78.4197L63.1826 78.1429L63.6624 78.4197M64.2261 78.1208C64.1881 78.0641 64.1518 78.0057 64.1163 77.9472C64.1518 78.0065 64.189 78.0641 64.2261 78.1208" fill="#B85B81"/>
<path fill-rule="evenodd" clip-rule="evenodd" d="M65.4868 79.472L63.6626 78.4199L65.4868 79.472M64.4787 78.4733C64.3913 78.3607 64.3066 78.243 64.2262 78.12C64.3066 78.243 64.3913 78.3607 64.4787 78.4733" fill="#494C71"/>
<path fill-rule="evenodd" clip-rule="evenodd" d="M78.8479 55.9492L76.8379 54.7871L78.8488 55.9492H78.8479M78.4485 55.8847C78.1226 55.7918 77.7794 55.7308 77.4232 55.7042V55.7033C77.7794 55.7308 78.1217 55.7918 78.4485 55.8847" fill="#FFFFFE"/>
<path fill-rule="evenodd" clip-rule="evenodd" d="M63.078 74.3368C63.0711 74.2319 63.065 74.1253 63.0607 74.0179C63.065 74.1253 63.0711 74.2319 63.078 74.3368C63.0771 74.3368 63.0789 74.3368 63.078 74.3368" fill="#E98A83"/>
<path fill-rule="evenodd" clip-rule="evenodd" d="M63.138 74.9518C63.1129 74.7515 63.093 74.5461 63.0783 74.3355C63.0792 74.3355 63.0775 74.3355 63.0783 74.3355C63.093 74.5461 63.1129 74.7515 63.138 74.9518" fill="#E98B83"/>
<path fill-rule="evenodd" clip-rule="evenodd" d="M63.1516 75.0542V75.0542C63.1464 75.0198 63.1421 74.9863 63.1378 74.9519C63.1421 74.9863 63.1473 75.0198 63.1516 75.0542" fill="#E98C83"/>
<path fill-rule="evenodd" clip-rule="evenodd" d="M91.1852 46.495L91.1843 46.4941C91.0382 46.1271 90.9172 45.7326 90.8229 45.3105H90.8238C90.918 45.7334 91.0391 46.128 91.1852 46.495" fill="#FFFFFE"/>
<path fill-rule="evenodd" clip-rule="evenodd" d="M93.0214 48.9628L90.7183 47.6331L93.0214 48.9628M92.188 48.1784C91.9926 47.9532 91.8128 47.7056 91.6503 47.4375H91.6511C91.8137 47.7065 91.9926 47.9532 92.188 48.1784" fill="#FFFFFE"/>
<path fill-rule="evenodd" clip-rule="evenodd" d="M106.383 25.4393L104.373 24.2764L106.383 25.4385V25.4393" fill="#FFFFFE"/>
<path fill-rule="evenodd" clip-rule="evenodd" d="M90.6871 44.5457H90.6863C90.6404 44.2139 90.6102 43.8675 90.5964 43.5073C90.611 43.8675 90.6413 44.2139 90.6871 44.5457" fill="#FFFFFE"/>
<path fill-rule="evenodd" clip-rule="evenodd" d="M32.3307 46.8041L32.3298 46.8032C32.1837 46.4362 32.0627 46.0417 31.9684 45.6196L31.9693 45.6205C32.0635 46.0425 32.1846 46.4371 32.3307 46.8041" fill="#FFFFFE"/>
<path fill-rule="evenodd" clip-rule="evenodd" d="M33.6942 48.8582C33.3553 48.5428 33.0544 48.1706 32.7959 47.7451H32.7968C33.0553 48.1706 33.3553 48.5428 33.6942 48.8582" fill="#FFFFFE"/>
<path fill-rule="evenodd" clip-rule="evenodd" d="M47.5286 25.7479L45.5186 24.585L47.5286 25.7479" fill="#FFFFFE"/>
<path fill-rule="evenodd" clip-rule="evenodd" d="M31.8331 44.8533H31.8323C31.7864 44.5206 31.7562 44.1751 31.7423 43.8149C31.757 44.1751 31.7873 44.5215 31.8331 44.8533" fill="#FFFFFE"/>
<defs>
<linearGradient id="paint0_linear_52_7175" x1="46.6192" y1="24.4614" x2="34.0441" y2="40.4578" gradientUnits="userSpaceOnUse">
<stop offset="8.1e-07" stop-color="#FF8B5B"/>
<stop offset="1" stop-color="#8B0F61"/>
</linearGradient>
<linearGradient id="paint1_linear_52_7175" x1="31.8132" y1="36.7697" x2="57.5083" y2="36.7697" gradientUnits="userSpaceOnUse">
<stop offset="8.1e-07" stop-color="#FF8B5B"/>
<stop offset="1" stop-color="#8B0F61"/>
</linearGradient>
<linearGradient id="paint2_linear_52_7175" x1="99.3981" y1="4.82387" x2="90.9706" y2="15.5442" gradientUnits="userSpaceOnUse">
<stop offset="8.1e-07" stop-color="#FF8B5B"/>
<stop offset="1" stop-color="#8B0F61"/>
</linearGradient>
<linearGradient id="paint3_linear_52_7175" x1="89.4753" y1="13.0739" x2="106.695" y2="13.0739" gradientUnits="userSpaceOnUse">
<stop offset="8.1e-07" stop-color="#FF8B5B"/>
<stop offset="1" stop-color="#8B0F61"/>
</linearGradient>
<linearGradient id="paint4_linear_52_7175" x1="77.455" y1="53.7476" x2="66.3268" y2="67.9034" gradientUnits="userSpaceOnUse">
<stop offset="8.1e-07" stop-color="#FF8B5B"/>
<stop offset="1" stop-color="#8B0F61"/>
</linearGradient>
<linearGradient id="paint5_linear_52_7175" x1="64.3528" y1="64.6423" x2="87.0913" y2="64.6423" gradientUnits="userSpaceOnUse">
<stop offset="8.1e-07" stop-color="#FF8B5B"/>
<stop offset="1" stop-color="#8B0F61"/>
</linearGradient>
</defs>
</svg>
