<svg width="31" height="27" viewBox="0 0 31 27" fill="none" xmlns="http://www.w3.org/2000/svg">
<path d="M9.74889 26.0943C21.447 26.0943 27.8454 16.4025 27.8454 7.9978C27.8454 7.72255 27.8454 7.44851 27.8269 7.17569C29.0716 6.2753 30.1461 5.16057 31 3.88351C29.8393 4.39786 28.6078 4.73511 27.347 4.88417C28.6744 4.08956 29.6685 2.83878 30.1431 1.36628C28.8947 2.10707 27.5287 2.62922 26.1045 2.9101C24.9019 1.63129 23.2223 0.905273 21.467 0.905273C17.9746 0.905273 15.1008 3.77907 15.1008 7.27141C15.1008 7.75591 15.1562 8.23889 15.2656 8.7108C10.1544 8.45462 5.38558 6.03698 2.15759 2.06565C0.478986 4.95531 1.34753 8.70014 4.12669 10.5559C3.11465 10.5259 2.12435 10.2529 1.24 9.75983V9.84042C1.24085 12.8565 3.3862 15.478 6.34259 16.0752C5.40629 16.3305 4.42368 16.3678 3.47079 16.1843C4.30192 18.7687 6.6986 20.5502 9.41286 20.6012C7.16112 22.3708 4.37796 23.332 1.51404 23.3292C1.00798 23.3282 0.502418 23.2976 0 23.2374C2.90831 25.1037 6.29324 26.094 9.74889 26.0894" fill="white"/>
</svg>
